<?xml version="1.0" standalone="no"?>
<!DOCTYPE svg PUBLIC "-//W3C//DTD SVG 20010904//EN"
 "http://www.w3.org/TR/2001/REC-SVG-20010904/DTD/svg10.dtd">
<svg version="1.0" xmlns="http://www.w3.org/2000/svg"
 width="1159.000000pt" height="1280.000000pt" viewBox="0 0 1159.000000 1280.000000"
 preserveAspectRatio="xMidYMid meet">
<metadata>
Created by potrace 1.15, written by Peter Selinger 2001-2017
</metadata>
<g transform="translate(0.000000,1280.000000) scale(0.100000,-0.100000)"
fill="#ccfbf1" stroke="none">
<path d="M6358 12789 c-26 -15 -23 -61 6 -88 13 -12 39 -59 59 -104 51 -116
75 -170 86 -187 5 -8 14 -40 20 -71 11 -50 20 -64 89 -135 42 -43 111 -114
152 -157 113 -118 127 -129 173 -138 81 -16 120 -11 141 17 17 25 18 29 2 76
-9 28 -16 78 -17 112 0 62 -19 177 -37 231 -6 17 -17 57 -25 90 -21 86 -74
205 -105 238 -55 58 -106 79 -210 87 -53 4 -114 15 -134 24 -42 18 -172 22
-200 5z"/>
<path d="M3394 12579 c-18 -20 -19 -46 -25 -368 -5 -293 -9 -354 -24 -395 -12
-37 -15 -65 -11 -105 17 -153 18 -221 3 -293 -9 -40 -19 -102 -22 -138 -4 -36
-18 -108 -31 -160 -13 -52 -24 -106 -24 -120 0 -14 -7 -50 -15 -80 -8 -30 -24
-116 -35 -190 -12 -74 -25 -139 -30 -144 -6 -6 -10 -46 -10 -90 0 -45 -7 -106
-15 -136 -8 -30 -24 -104 -35 -164 -11 -60 -24 -114 -29 -120 -5 -6 -13 -36
-17 -66 -7 -55 -42 -151 -74 -205 -9 -16 -20 -59 -24 -95 -6 -62 -152 -518
-181 -565 -17 -26 -36 -86 -49 -155 -8 -41 -17 -57 -34 -66 -13 -6 -29 -17
-35 -23 -22 -22 -44 -9 -147 90 -60 58 -123 109 -148 120 -78 34 -135 81 -275
223 -193 196 -233 243 -327 386 -94 143 -132 215 -197 373 -54 134 -157 339
-213 425 -22 35 -56 72 -75 83 l-35 21 6 62 c6 56 3 69 -34 156 -22 52 -53
109 -69 125 -35 36 -161 100 -218 110 -56 10 -94 32 -101 59 -11 47 -37 59
-112 54 -56 -3 -79 -10 -127 -38 -85 -51 -155 -117 -155 -146 0 -13 5 -24 10
-24 6 0 19 -9 30 -20 10 -10 42 -29 70 -41 65 -28 133 -102 150 -164 8 -28 22
-53 37 -62 14 -9 35 -32 48 -51 25 -36 96 -91 157 -119 49 -23 49 -48 2 -94
-43 -41 -60 -71 -68 -124 -7 -44 14 -137 37 -164 8 -9 22 -39 31 -68 10 -28
26 -63 37 -76 18 -24 80 -165 121 -276 10 -30 35 -72 53 -94 19 -22 47 -66 62
-99 14 -32 30 -58 33 -58 4 0 26 -35 49 -78 59 -110 136 -209 202 -259 33 -24
70 -65 89 -96 24 -39 48 -64 89 -88 31 -19 72 -48 92 -66 41 -37 283 -178 339
-198 69 -24 100 -45 171 -115 68 -68 288 -221 380 -266 25 -12 79 -47 120 -78
81 -61 110 -71 201 -64 56 4 64 8 99 45 23 25 40 54 42 74 3 19 10 66 16 104
7 39 19 113 27 165 8 52 22 115 30 140 8 25 14 59 14 76 0 17 4 44 9 60 33
106 51 193 61 284 6 58 17 150 25 205 8 55 19 159 24 230 6 72 22 184 36 250
44 201 77 417 110 733 l7 62 54 0 c52 0 54 -1 74 -40 11 -21 20 -49 20 -60 0
-11 9 -39 21 -62 11 -22 25 -70 30 -105 9 -67 21 -95 103 -240 48 -87 153
-248 178 -274 7 -8 19 -26 27 -41 17 -33 209 -213 246 -230 14 -6 33 -25 41
-40 13 -25 20 -28 62 -28 56 0 70 16 80 94 24 186 -9 300 -189 646 -30 58 -97
204 -148 325 -146 347 -199 465 -241 540 -65 116 -98 188 -114 251 -8 32 -25
77 -36 99 -25 49 -28 185 -6 231 32 63 70 284 70 410 1 133 8 113 -77 217 -10
14 -22 56 -29 110 -12 86 -12 88 -56 124 -43 35 -141 82 -173 83 -9 0 -24 -9
-35 -21z"/>
<path d="M5671 12486 c-20 -23 -72 -303 -81 -432 -9 -125 -20 -163 -96 -307
-13 -26 -35 -77 -49 -112 -13 -35 -32 -72 -43 -83 -11 -11 -40 -84 -66 -164
-44 -136 -50 -147 -91 -181 -29 -25 -54 -37 -74 -37 -30 0 -33 5 -137 218
-102 209 -177 333 -208 345 -8 3 -19 22 -25 43 -8 29 -7 41 6 61 14 20 17 49
16 142 -2 189 -27 251 -125 303 -33 17 -74 44 -90 60 -26 24 -38 28 -88 28
-57 0 -57 0 -53 -27 14 -94 27 -158 49 -233 38 -127 48 -153 108 -296 30 -72
67 -178 81 -235 15 -57 37 -122 50 -145 13 -22 27 -63 31 -91 7 -59 3 -62 -94
-69 -34 -2 -81 -8 -105 -14 -23 -5 -79 -10 -125 -10 -46 0 -92 -4 -102 -10
-17 -9 -17 -13 11 -86 15 -43 33 -82 39 -88 16 -16 12 -45 -25 -198 -43 -173
-54 -319 -35 -435 7 -43 21 -89 32 -102 10 -13 18 -28 18 -34 0 -28 45 -99 71
-112 34 -18 170 -20 202 -4 68 35 92 79 107 195 7 49 25 127 41 173 16 46 29
94 29 106 0 13 7 28 15 35 13 11 23 6 60 -32 38 -37 47 -54 56 -104 21 -114
-13 -247 -81 -314 -21 -20 -40 -45 -43 -56 -3 -10 -24 -86 -47 -169 -23 -82
-54 -190 -70 -240 -16 -49 -31 -112 -35 -140 -4 -27 -16 -63 -28 -79 -12 -18
-22 -50 -25 -83 l-4 -53 75 0 75 0 41 65 c22 36 45 65 50 65 5 0 38 39 72 88
35 48 66 89 69 92 13 11 120 224 120 240 0 21 41 60 64 60 27 0 132 -96 154
-143 11 -23 29 -64 38 -92 10 -27 32 -66 51 -85 62 -67 100 -115 107 -137 4
-13 14 -23 22 -23 9 0 14 -11 14 -31 0 -21 8 -37 27 -52 15 -12 64 -58 108
-102 44 -44 96 -91 115 -104 19 -13 49 -41 65 -63 37 -49 74 -72 190 -120 96
-40 156 -47 228 -27 51 14 63 45 82 211 8 73 22 154 30 180 8 26 15 54 15 64
0 9 16 51 34 93 24 52 37 99 41 146 6 55 14 82 41 127 26 43 40 84 54 159 20
106 69 227 123 304 15 22 61 135 101 250 83 239 103 283 157 342 21 23 58 83
83 133 65 130 118 216 173 283 53 65 79 101 105 143 25 42 42 68 48 74 7 7 31
48 57 99 17 34 23 61 23 113 0 37 -3 68 -6 68 -18 0 -45 -25 -67 -62 -40 -67
-103 -128 -132 -128 -16 0 -25 -6 -25 -15 0 -9 -12 -21 -26 -27 -15 -7 -36
-33 -51 -62 -14 -28 -32 -55 -39 -59 -8 -4 -14 -14 -14 -22 0 -7 -9 -16 -19
-20 -10 -3 -48 -49 -84 -103 -36 -53 -100 -137 -143 -187 -52 -61 -89 -118
-116 -175 -22 -47 -75 -134 -118 -195 -86 -123 -106 -158 -143 -260 -40 -111
-83 -200 -128 -267 -23 -34 -52 -94 -64 -132 -24 -78 -64 -167 -80 -178 -5 -4
-27 -8 -47 -8 -27 0 -40 5 -48 20 -6 11 -29 28 -50 36 -24 10 -60 39 -89 73
-39 45 -62 61 -113 80 -34 13 -102 44 -150 67 -78 39 -95 53 -155 126 -37 45
-82 109 -99 142 -17 34 -41 80 -54 104 -27 52 -29 124 -6 203 9 30 21 85 26
122 7 47 28 106 66 189 98 213 145 345 153 433 10 102 61 230 101 253 29 17
34 24 123 167 74 119 88 160 94 285 8 165 -13 214 -107 245 -40 13 -52 13 -91
2 -39 -12 -49 -12 -64 -1 -24 18 -49 18 -64 0z"/>
<path d="M10185 12270 c-16 -16 -37 -32 -47 -36 -11 -3 -46 -61 -88 -144 -77
-152 -116 -199 -205 -250 -32 -18 -65 -42 -74 -52 -9 -11 -43 -33 -76 -51 -82
-43 -254 -215 -335 -335 -35 -52 -73 -97 -85 -102 -11 -4 -27 -15 -35 -25 -19
-22 -78 -52 -133 -66 -26 -6 -52 -17 -58 -25 -14 -17 -5 -42 18 -51 21 -8 52
-43 53 -59 0 -17 101 -94 124 -94 35 0 217 96 291 154 39 31 103 79 144 108
41 29 88 65 105 79 17 14 52 37 78 52 55 32 207 159 293 245 67 67 101 86 225
127 93 31 129 61 212 178 22 31 45 57 49 57 14 0 11 114 -3 128 -8 8 -48 12
-115 12 -101 0 -103 0 -119 28 -47 76 -62 93 -109 121 -28 17 -58 31 -66 31
-8 0 -28 -13 -44 -30z"/>
<path d="M8503 12151 c-77 -13 -113 -38 -148 -103 -16 -31 -44 -82 -61 -115
-17 -32 -47 -81 -66 -108 -45 -63 -55 -98 -63 -210 -3 -49 -11 -117 -17 -151
-10 -55 -9 -65 10 -100 11 -21 29 -60 40 -85 28 -66 138 -149 197 -149 63 0
119 44 219 171 98 123 126 178 163 319 14 54 33 103 45 113 23 23 65 114 83
185 13 47 12 58 -2 95 -36 94 -110 135 -255 142 -51 2 -116 0 -145 -4z"/>
<path d="M6206 11869 c-15 -12 -41 -49 -58 -83 -16 -33 -52 -98 -79 -143 -39
-64 -53 -101 -69 -175 -24 -114 -40 -251 -40 -339 0 -61 3 -70 40 -123 22 -31
47 -74 56 -94 19 -47 37 -67 102 -110 78 -51 119 -47 207 23 22 18 48 35 57
38 10 3 20 19 24 34 21 98 62 192 99 233 28 30 87 164 105 239 18 77 8 202
-19 237 -12 15 -21 33 -21 41 0 50 -67 126 -178 202 -57 38 -65 41 -130 41
-55 0 -75 -4 -96 -21z"/>
<path d="M7420 11162 c0 -5 9 -44 20 -87 11 -43 20 -95 20 -116 0 -21 15 -104
34 -186 58 -251 67 -311 76 -509 8 -185 9 -192 39 -251 20 -40 27 -63 19 -65
-9 -3 -6 -55 10 -198 11 -106 18 -198 15 -204 -9 -14 -4 -95 8 -132 6 -21 20
-36 39 -44 20 -8 40 -32 63 -74 27 -49 46 -69 98 -103 35 -24 71 -50 80 -58
41 -39 99 -5 118 69 13 53 35 100 86 186 18 30 51 110 74 178 57 171 79 218
120 261 23 23 58 86 95 167 70 155 147 302 233 446 60 100 64 110 61 160 -3
45 -6 53 -24 56 -12 2 -28 -3 -35 -11 -8 -7 -22 -16 -32 -20 -9 -3 -22 -18
-27 -31 -5 -14 -22 -32 -38 -40 -16 -8 -49 -34 -73 -56 -24 -23 -65 -52 -90
-65 -26 -13 -61 -42 -79 -64 -17 -23 -61 -71 -97 -108 -35 -38 -79 -88 -96
-113 -43 -62 -66 -79 -108 -80 l-37 0 -17 98 c-10 53 -22 108 -27 122 -5 14
-27 102 -49 195 -53 228 -88 329 -154 440 -61 104 -142 181 -233 222 -54 23
-92 30 -92 15z"/>
<path d="M8667 11023 c-13 -12 -7 -61 8 -77 17 -17 52 -92 92 -196 16 -43 24
-84 24 -122 0 -52 3 -61 40 -105 23 -28 46 -71 56 -103 9 -30 22 -64 29 -75 7
-11 31 -117 53 -235 22 -118 52 -246 66 -285 13 -38 25 -89 25 -111 0 -23 18
-97 40 -165 22 -68 56 -198 76 -289 44 -203 69 -297 95 -355 11 -24 24 -81 29
-127 20 -167 42 -275 70 -348 15 -41 33 -102 39 -135 18 -94 33 -145 42 -145
5 0 9 -22 9 -50 0 -27 4 -50 9 -50 5 0 17 -20 27 -45 22 -58 70 -100 135 -119
27 -9 64 -27 80 -40 56 -48 141 -45 166 4 7 14 24 39 39 55 14 17 45 59 68 95
24 36 63 95 88 131 25 36 47 81 51 100 8 52 87 248 112 277 11 15 31 63 44
106 28 99 48 139 176 351 56 94 150 265 208 380 61 121 120 226 141 248 35 38
47 61 119 217 18 41 56 104 84 140 27 36 84 135 126 220 47 95 99 182 133 225
77 96 134 211 134 270 l0 45 -55 0 c-46 0 -61 -4 -83 -26 -41 -38 -120 -81
-175 -95 -48 -11 -49 -11 -83 22 -19 18 -40 48 -46 66 -11 31 -15 33 -58 33
l-46 0 -2 -42 c-2 -24 -34 -137 -73 -253 -79 -234 -116 -302 -253 -461 -39
-46 -91 -119 -115 -161 -23 -43 -52 -91 -64 -108 -182 -249 -267 -392 -267
-447 0 -18 -13 -39 -39 -65 -48 -47 -130 -188 -155 -269 -31 -99 -38 -113 -65
-149 -14 -18 -43 -61 -64 -94 -39 -62 -67 -78 -67 -39 0 12 -11 49 -24 82 -13
34 -29 97 -36 141 -6 44 -16 100 -21 125 -6 25 -14 66 -19 92 -5 26 -25 96
-44 157 -20 61 -36 121 -36 133 0 26 -41 155 -93 298 -19 52 -52 169 -72 260
-51 224 -98 374 -145 464 -22 41 -40 82 -40 90 0 8 -19 47 -42 88 -23 40 -56
108 -73 151 -30 71 -40 85 -133 170 -55 50 -121 107 -146 125 -42 30 -84 41
-99 25z"/>
<path d="M2232 10538 c-71 -9 -82 -13 -77 -27 17 -40 38 -149 65 -339 24 -169
33 -208 50 -227 11 -12 23 -40 27 -61 3 -21 24 -74 46 -118 52 -101 85 -126
212 -156 85 -21 102 -22 150 -11 119 27 141 77 139 316 -1 165 -8 197 -50 246
-8 9 -21 58 -29 110 -27 175 -52 224 -130 260 -33 15 -63 18 -180 17 -77 0
-177 -5 -223 -10z"/>
<path d="M9733 10103 c-10 -16 -23 -33 -29 -39 -19 -21 -72 -266 -79 -364 -3
-52 -11 -107 -17 -122 -8 -23 -5 -37 21 -89 17 -34 31 -68 31 -76 0 -21 27
-69 54 -96 12 -13 25 -29 27 -36 3 -7 23 -15 46 -18 47 -6 73 9 148 85 101
101 205 377 207 545 1 84 -15 123 -67 162 -51 40 -172 75 -255 75 -65 0 -71
-2 -87 -27z"/>
<path d="M6781 9001 c-30 -30 -17 -58 70 -146 57 -58 86 -98 108 -147 17 -36
35 -69 41 -73 6 -4 28 -30 49 -58 21 -29 86 -100 145 -160 118 -120 125 -137
85 -211 -24 -46 -17 -75 32 -138 18 -22 35 -56 40 -76 4 -20 17 -62 28 -92 12
-30 39 -113 61 -183 31 -104 45 -133 71 -158 29 -27 31 -33 25 -75 -7 -54 -59
-186 -86 -221 -11 -14 -20 -41 -20 -59 0 -18 -6 -37 -14 -41 -14 -8 -156 -283
-160 -309 -1 -7 -7 -18 -13 -25 -6 -8 -38 -71 -71 -141 -33 -70 -70 -141 -81
-157 -12 -16 -21 -41 -21 -54 0 -14 -5 -29 -10 -32 -18 -11 -127 -218 -135
-257 -4 -16 -10 -28 -15 -28 -7 0 -190 -446 -190 -464 0 -4 -14 -42 -31 -86
-20 -53 -37 -81 -50 -85 -14 -5 -19 -15 -19 -40 0 -40 -4 -43 -64 -51 -41 -6
-46 -5 -46 12 0 23 -63 175 -93 224 -12 19 -52 77 -89 129 -67 93 -81 118
-168 311 -24 52 -60 120 -80 150 -32 47 -90 174 -90 195 0 4 -18 47 -39 94
-22 48 -43 105 -47 125 -3 21 -46 115 -94 210 -94 186 -180 391 -180 431 0 14
22 80 49 147 27 68 68 183 91 256 46 144 67 178 139 223 24 16 63 46 87 69 23
22 47 40 53 40 5 0 30 17 54 38 24 20 64 51 88 68 53 36 95 109 110 189 10 53
9 58 -10 72 -12 8 -21 22 -21 32 0 18 -71 71 -96 71 -7 0 -18 -9 -24 -20 -6
-12 -36 -27 -76 -40 -79 -24 -102 -25 -153 -4 -34 14 -51 32 -98 103 -1 2 -17
1 -36 -3 l-34 -6 -5 -98 c-5 -104 -20 -149 -63 -197 -15 -16 -33 -42 -41 -57
-7 -14 -28 -36 -45 -48 -18 -13 -44 -51 -64 -92 -44 -89 -49 -95 -109 -124
-43 -21 -54 -22 -82 -12 -27 10 -37 22 -55 70 -26 71 -66 128 -102 147 -15 8
-29 21 -32 30 -2 9 -11 93 -20 186 -26 287 -49 360 -128 395 -45 21 -112 26
-122 10 -18 -29 -43 -29 -88 0 -77 49 -179 80 -261 80 -81 0 -96 -9 -96 -55 0
-23 12 -44 45 -80 25 -28 64 -84 86 -126 31 -59 64 -100 150 -185 60 -60 116
-124 124 -142 8 -19 19 -71 25 -116 6 -45 23 -136 39 -202 17 -65 32 -141 36
-169 12 -99 16 -115 36 -133 12 -12 25 -48 35 -93 12 -60 21 -78 45 -97 33
-27 37 -57 10 -86 -28 -31 -121 -197 -121 -217 0 -9 -18 -39 -40 -65 -28 -34
-48 -75 -67 -134 -15 -47 -32 -92 -39 -100 -6 -8 -14 -33 -17 -54 -4 -24 -17
-49 -32 -63 -14 -13 -25 -30 -25 -39 0 -8 -11 -32 -25 -54 -14 -22 -38 -72
-54 -112 -52 -130 -81 -189 -111 -226 -29 -38 -84 -186 -164 -444 -38 -121
-48 -142 -83 -178 -22 -22 -49 -40 -60 -40 -18 0 -53 32 -53 48 0 4 -11 23
-23 42 -28 42 -69 119 -136 260 -27 58 -70 130 -95 160 -26 30 -51 71 -57 90
-20 62 -71 154 -105 192 -18 21 -36 50 -40 65 -8 34 -97 206 -130 250 -13 17
-24 39 -24 47 0 8 -13 31 -30 49 -16 19 -39 55 -50 81 -11 26 -58 111 -104
189 -136 232 -144 253 -111 318 9 16 47 123 85 236 39 114 76 216 84 228 8 12
22 62 31 111 27 149 70 215 186 290 71 45 107 88 187 225 28 47 58 92 67 99
30 25 52 83 68 175 l16 90 -27 22 c-43 35 -106 29 -122 -12 -11 -30 -86 -65
-142 -67 -34 -2 -52 3 -76 22 -17 14 -31 32 -31 40 -1 26 -23 40 -61 40 -45 0
-63 -26 -54 -76 5 -27 2 -42 -13 -62 -11 -15 -25 -44 -32 -64 -7 -20 -18 -41
-25 -47 -8 -7 -16 -45 -20 -89 -4 -43 -14 -91 -22 -106 -7 -16 -14 -36 -14
-45 -1 -24 -35 -96 -57 -118 -16 -16 -131 -240 -217 -423 -29 -63 -129 -170
-157 -170 -24 0 -52 16 -95 55 -31 28 -34 37 -43 116 -6 50 -19 107 -32 134
-30 63 -110 149 -163 175 -50 24 -176 40 -176 21 0 -16 -40 -14 -160 9 -66 13
-107 25 -113 35 -5 9 -22 15 -42 15 -28 0 -35 -4 -35 -19 0 -25 28 -91 39 -91
4 0 20 -31 35 -70 28 -71 78 -128 136 -153 14 -6 39 -21 55 -33 17 -12 70 -36
119 -53 49 -16 93 -34 97 -38 5 -5 11 -42 15 -83 8 -85 22 -120 58 -144 33
-21 51 -57 72 -140 9 -36 32 -92 50 -122 19 -31 34 -63 34 -71 0 -23 -99 -321
-131 -395 -17 -40 -35 -108 -44 -165 -20 -131 -37 -187 -80 -253 -29 -44 -34
-60 -29 -88 4 -23 2 -38 -9 -50 -33 -36 -57 -113 -57 -180 0 -61 -12 -112 -63
-257 -5 -16 -13 -70 -17 -120 -6 -79 -51 -271 -82 -345 -5 -14 -12 -43 -14
-65 -2 -29 -11 -46 -31 -62 -16 -13 -33 -23 -39 -23 -17 0 -32 48 -36 116 -3
51 -17 87 -90 240 -47 98 -100 213 -118 254 -18 41 -48 99 -66 128 -19 29 -62
108 -95 175 -72 143 -131 236 -184 292 -21 22 -43 54 -51 70 -7 17 -22 39 -34
50 -12 11 -37 50 -56 87 -18 36 -42 72 -52 80 -17 12 -134 185 -166 245 -8 16
-31 46 -51 68 -20 22 -54 75 -76 117 -21 42 -43 79 -49 83 -5 3 -57 77 -114
163 l-105 157 -103 63 c-57 34 -111 69 -121 76 -24 18 -21 64 8 111 23 36 25
50 25 153 0 131 -11 183 -48 233 -15 21 -40 56 -57 80 -50 71 -115 130 -174
157 -50 24 -71 27 -199 30 -155 5 -172 0 -172 -47 0 -20 19 -44 81 -101 44
-41 94 -95 111 -120 17 -25 55 -68 84 -96 28 -28 61 -68 72 -90 11 -21 52 -83
91 -138 39 -54 71 -105 71 -112 0 -8 18 -30 39 -50 37 -33 39 -37 28 -67 -6
-17 -19 -40 -29 -51 -10 -11 -18 -26 -18 -33 0 -8 -38 -127 -85 -266 -126
-375 -136 -433 -81 -494 18 -21 42 -59 54 -84 12 -28 32 -54 51 -65 17 -10 31
-21 31 -25 0 -4 20 -29 45 -57 25 -27 45 -55 45 -61 0 -7 7 -14 15 -17 8 -4
15 -10 15 -15 0 -5 28 -44 63 -87 165 -210 242 -312 271 -361 28 -50 40 -60
131 -108 55 -30 102 -58 104 -64 1 -5 14 -20 26 -32 32 -30 105 -170 105 -202
0 -14 -11 -52 -25 -85 -18 -43 -25 -78 -25 -124 0 -94 -20 -263 -37 -310 -14
-41 -23 -118 -43 -391 -6 -82 -15 -197 -20 -255 -5 -58 -6 -131 -1 -163 8 -61
2 -212 -23 -542 -9 -110 -22 -342 -31 -515 -8 -173 -20 -355 -25 -405 -6 -55
-8 -278 -5 -575 10 -843 26 -1275 55 -1428 6 -35 6 -61 -1 -79 -12 -33 6 -299
23 -341 14 -36 14 -330 -1 -345 -17 -17 -13 -52 8 -71 17 -16 43 -16 357 -6
187 6 614 15 949 20 540 8 753 17 834 36 23 5 24 6 18 92 -4 48 -11 121 -16
162 -6 41 -11 118 -11 170 -1 100 -5 126 -39 252 -24 94 -42 212 -75 503 -36
317 -40 383 -86 1285 -6 113 -24 405 -40 650 -16 245 -34 555 -40 690 -6 135
-20 342 -30 460 -27 299 -30 347 -40 675 -10 311 -30 486 -77 675 -37 150 -30
229 46 528 32 128 64 239 71 247 15 18 47 19 81 3 19 -9 30 -30 52 -102 15
-50 32 -104 38 -121 7 -16 15 -68 19 -115 7 -79 30 -225 66 -430 22 -129 44
-461 44 -685 0 -324 28 -1077 41 -1114 8 -23 10 -73 6 -151 -3 -65 -4 -120 -1
-123 3 -3 5 -119 4 -258 0 -197 3 -267 15 -312 10 -40 15 -108 15 -220 0 -104
6 -187 15 -232 12 -56 15 -163 15 -543 0 -387 3 -479 14 -507 11 -26 12 -41 4
-63 -8 -20 -8 -50 1 -107 7 -44 11 -90 11 -102 -8 -119 1 -423 14 -523 4 -25
13 -169 21 -320 16 -283 24 -346 47 -362 24 -17 910 11 1038 33 95 16 139 64
149 160 12 121 -20 532 -51 661 -9 35 -9 57 0 85 10 33 8 51 -10 118 -11 44
-21 113 -22 155 l-1 75 29 3 c20 3 36 -4 56 -23 26 -25 28 -31 33 -153 3 -78
13 -161 26 -216 24 -101 65 -401 66 -491 0 -36 10 -83 23 -118 18 -46 22 -79
22 -161 l0 -103 137 -6 c75 -4 220 -7 323 -7 215 0 204 -6 189 96 -21 138 -51
303 -64 348 -8 26 -15 74 -15 105 0 49 -50 390 -80 551 -32 169 -41 229 -50
372 -7 118 -16 174 -34 230 -35 109 -64 259 -71 373 -3 55 -10 136 -15 180
-20 160 -70 792 -70 875 0 90 -19 238 -45 355 -15 71 -26 189 -45 535 -7 107
-18 223 -26 258 -8 35 -14 84 -14 110 0 26 -7 83 -15 126 -23 120 -63 430 -80
626 -9 96 -23 220 -31 275 -26 164 -22 204 36 357 66 175 94 230 144 281 31
31 50 64 71 122 37 104 50 133 79 173 14 18 33 54 43 80 9 26 28 62 40 81 12
18 25 48 29 67 5 29 10 34 34 34 26 0 60 -26 60 -47 0 -6 8 -21 19 -34 25 -33
104 -237 126 -329 10 -41 34 -120 53 -175 33 -97 35 -105 41 -305 4 -130 11
-213 19 -227 8 -15 12 -88 12 -242 0 -215 1 -221 21 -232 17 -9 19 -13 8 -20
-12 -7 -14 -78 -14 -401 -1 -288 -5 -448 -18 -598 -10 -113 -22 -311 -27 -440
-6 -165 -14 -265 -28 -335 -24 -115 -40 -383 -43 -670 -3 -376 -3 -990 0
-1045 2 -30 0 -127 -4 -215 l-8 -161 31 -29 c18 -17 28 -33 23 -40 -4 -5 -7
-57 -5 -115 10 -312 5 -640 -11 -699 -12 -46 -12 -55 1 -68 21 -22 17 -57 -8
-68 -30 -13 -37 -69 -12 -96 15 -17 32 -19 129 -19 126 0 171 6 178 25 3 6 9
74 13 149 5 112 4 147 -9 189 -31 102 -53 340 -65 710 l-7 218 25 24 c23 22
29 23 80 13 70 -12 148 -54 166 -90 18 -35 18 -111 -2 -271 -13 -101 -15 -143
-6 -186 11 -61 5 -228 -9 -237 -5 -3 -6 -45 -2 -93 5 -76 3 -93 -13 -120 -19
-32 -19 -33 4 -51 28 -23 28 -33 -5 -100 -14 -30 -29 -76 -33 -103 l-6 -47
886 0 c710 0 890 3 904 13 23 17 19 105 -13 332 -35 254 -43 323 -52 435 -4
58 -16 143 -28 190 -11 47 -21 108 -21 137 0 29 -9 112 -19 185 -62 422 -107
882 -121 1218 -5 135 -19 335 -30 445 -11 110 -31 353 -45 540 -14 187 -32
405 -39 485 -8 80 -17 204 -21 275 -3 72 -14 173 -24 225 -11 52 -22 145 -25
205 -3 61 -14 166 -26 235 -11 69 -24 215 -29 325 -7 143 -14 214 -27 249 -12
36 -15 66 -11 115 10 115 53 271 100 367 25 49 77 182 115 296 83 244 91 259
137 288 19 12 35 26 35 31 0 23 65 7 111 -27 38 -27 51 -45 60 -77 6 -23 19
-57 30 -75 10 -18 26 -60 35 -94 17 -67 40 -118 52 -118 5 0 13 -15 20 -33 6
-18 50 -95 97 -172 48 -77 107 -176 131 -222 25 -45 50 -85 55 -88 16 -11 9
-48 -13 -73 -26 -27 -26 -11 -17 -702 4 -341 3 -356 -41 -735 -11 -88 -22
-207 -26 -265 -4 -73 -11 -110 -22 -123 -12 -13 -13 -20 -4 -29 16 -16 15 -74
-4 -155 -11 -46 -14 -89 -10 -133 5 -43 0 -115 -13 -210 -11 -80 -23 -192 -26
-250 -3 -58 -12 -150 -20 -205 -15 -100 -34 -325 -57 -635 -6 -91 -12 -304
-13 -475 -2 -347 -16 -644 -36 -751 -11 -62 -10 -85 3 -162 13 -70 14 -98 6
-126 -9 -27 -9 -76 0 -185 9 -123 8 -159 -4 -210 -15 -68 -44 -130 -68 -150
-21 -18 -20 -31 2 -31 23 0 42 -19 42 -42 0 -16 10 -18 103 -18 113 1 172 11
195 34 13 12 17 78 24 408 5 216 11 562 12 768 1 206 3 500 4 653 l2 277 38 0
c21 0 43 -5 50 -12 8 -8 12 -57 12 -152 0 -95 6 -164 17 -211 9 -38 17 -90 18
-115 2 -25 8 -58 14 -73 8 -20 8 -34 0 -48 -9 -17 -9 -88 1 -259 11 -177 45
-435 67 -499 12 -34 12 -49 3 -66 -7 -14 -10 -51 -6 -106 10 -177 26 -346 35
-389 6 -25 10 -77 11 -116 l0 -71 118 -6 c216 -12 1326 23 1379 43 28 10 33
18 39 58 9 59 -3 361 -16 398 -12 36 -40 428 -41 572 0 111 -6 159 -33 276
-10 46 -19 167 -26 370 -12 367 -25 579 -47 796 -21 211 -22 306 -3 347 12 29
12 38 -2 80 -27 77 -30 269 -13 693 9 217 14 433 11 480 -11 153 -37 780 -42
1025 -7 330 -8 338 -51 381 -33 33 -35 39 -31 83 6 60 35 94 173 204 55 43
134 116 175 161 41 45 96 102 122 128 29 28 63 79 90 133 25 52 66 114 100
151 32 35 67 82 78 103 11 22 28 46 39 53 10 7 37 50 59 95 23 45 55 97 72
116 33 38 60 95 60 127 0 24 50 127 90 185 43 62 141 265 156 320 8 28 14 67
14 88 0 21 7 67 16 102 l16 63 82 55 c44 30 170 99 279 153 l198 98 -3 64 c-2
53 -7 67 -23 76 -11 5 -39 23 -61 38 -31 21 -66 31 -137 42 -52 8 -104 19
-115 25 -35 19 -52 53 -52 103 0 37 -5 52 -25 72 -44 44 -89 14 -112 -77 -19
-70 -138 -323 -176 -371 -17 -22 -68 -80 -112 -127 -44 -47 -93 -110 -109
-140 -17 -32 -73 -98 -140 -165 -104 -105 -135 -141 -229 -268 -21 -28 -51
-66 -67 -84 -17 -18 -30 -37 -30 -43 0 -6 -27 -38 -61 -71 -33 -34 -84 -102
-114 -152 -29 -50 -65 -102 -79 -115 -14 -13 -40 -48 -58 -78 -18 -29 -49 -64
-70 -78 -21 -14 -47 -43 -58 -65 -11 -22 -24 -40 -28 -40 -4 0 -15 -20 -25
-44 -10 -24 -33 -61 -51 -82 -18 -22 -49 -67 -69 -101 -21 -34 -51 -76 -68
-94 -17 -18 -39 -50 -51 -72 -11 -22 -34 -54 -52 -72 -18 -18 -36 -46 -39 -61
-3 -16 -43 -76 -88 -134 -121 -155 -193 -268 -225 -356 -18 -51 -48 -105 -89
-157 -33 -44 -66 -88 -74 -99 -27 -36 -41 -22 -41 40 0 70 -36 182 -108 332
-27 58 -69 150 -93 204 -24 55 -50 107 -58 116 -35 36 -113 216 -181 420 -40
118 -83 235 -96 260 -13 25 -32 82 -44 126 -23 92 -68 205 -95 237 -29 33 -77
195 -78 257 -1 59 39 165 66 176 17 6 61 84 82 145 15 41 15 43 -10 69 -47 49
-37 61 83 98 59 19 126 40 149 47 24 8 57 25 75 38 18 13 65 37 103 52 116 46
153 111 98 172 -16 17 -40 52 -55 77 -36 61 -102 92 -224 107 -49 6 -98 17
-110 24 -12 8 -27 37 -38 76 -21 77 -30 89 -67 89 -40 0 -74 -35 -104 -110
-15 -36 -34 -73 -42 -82 -12 -13 -17 -49 -21 -135 -4 -109 -3 -120 17 -142 31
-35 26 -50 -21 -71 -51 -23 -120 -25 -202 -6 -72 17 -105 41 -129 92 -27 56
-55 83 -99 95 -21 5 -51 22 -67 37 -15 15 -36 32 -45 37 -24 14 -33 73 -41
265 -4 91 -11 182 -17 203 -18 72 -128 167 -193 167 -29 0 -65 -32 -65 -59 0
-53 -53 -42 -134 28 -27 23 -69 51 -93 63 -25 12 -47 28 -51 37 -8 22 -30 39
-80 61 -54 25 -67 25 -91 1z"/>
<path d="M3823 7990 c-48 -11 -120 -57 -146 -93 -13 -17 -34 -59 -47 -92 -13
-33 -32 -71 -42 -85 -17 -24 -18 -39 -9 -229 9 -192 11 -206 37 -257 34 -67
87 -118 185 -174 175 -102 196 -127 210 -247 6 -49 18 -96 34 -127 14 -27 25
-62 25 -77 0 -32 39 -59 85 -59 22 0 25 4 25 34 0 26 5 36 21 41 31 10 47 60
59 186 16 163 18 174 40 199 32 37 40 86 40 251 0 141 -3 166 -30 270 -17 63
-39 158 -50 213 -11 54 -28 112 -38 130 -25 42 -79 70 -196 100 -100 26 -146
30 -203 16z"/>
<path d="M6763 7940 c-90 -19 -126 -53 -136 -129 -4 -33 -14 -51 -41 -76 -20
-18 -36 -40 -36 -49 0 -24 -42 -104 -79 -150 -17 -21 -31 -47 -31 -58 0 -10
-9 -37 -20 -59 -20 -37 -50 -199 -50 -265 0 -43 64 -162 110 -204 20 -19 50
-52 65 -73 l28 -37 -22 -145 c-17 -113 -20 -152 -12 -182 6 -21 11 -49 11 -63
0 -15 11 -32 26 -44 28 -20 15 -23 145 31 72 30 128 117 201 313 44 118 106
237 152 292 39 45 99 253 116 398 11 104 5 161 -30 282 -19 61 -30 81 -72 122
-28 26 -74 59 -103 72 -60 28 -157 38 -222 24z"/>
<path d="M1820 7711 c-109 -16 -143 -30 -192 -81 -40 -42 -51 -63 -77 -148
-17 -55 -31 -104 -31 -110 0 -6 41 -34 91 -63 89 -50 91 -52 85 -83 -15 -78
-18 -117 -9 -128 6 -7 18 -55 28 -106 11 -60 26 -105 41 -125 13 -18 37 -57
53 -88 30 -56 168 -209 188 -209 6 0 39 -16 73 -35 47 -27 74 -35 110 -35 48
0 48 0 54 38 12 74 26 259 26 337 0 98 -14 185 -45 290 -13 44 -26 100 -30
125 -3 25 -11 66 -16 91 -8 37 -7 54 5 84 25 58 20 102 -16 158 -22 34 -45 55
-72 68 -48 21 -186 31 -266 20z"/>
<path d="M9103 7688 c-16 -8 -26 -31 -44 -102 -12 -50 -28 -100 -35 -111 -7
-11 -22 -49 -33 -85 -12 -36 -33 -82 -46 -102 -37 -55 -70 -166 -95 -313 -38
-222 -18 -300 83 -330 71 -21 115 -49 123 -79 3 -14 3 -47 -1 -73 -3 -27 -8
-130 -11 -231 -7 -216 -8 -211 95 -212 53 0 67 4 82 22 11 11 19 34 19 51 0
16 18 67 40 114 22 47 40 94 40 104 0 32 61 193 102 269 75 138 107 205 108
224 0 10 23 87 52 170 l52 151 0 130 c1 169 -16 230 -82 296 -51 50 -119 80
-232 105 -76 16 -186 17 -217 2z"/>
</g>
</svg>
