<?xml version="1.0" standalone="no"?>
<!DOCTYPE svg PUBLIC "-//W3C//DTD SVG 20010904//EN"
 "http://www.w3.org/TR/2001/REC-SVG-20010904/DTD/svg10.dtd">
<svg version="1.0" xmlns="http://www.w3.org/2000/svg"
 width="1280.000000pt" height="1273.000000pt" viewBox="0 0 1280.000000 1273.000000"
 preserveAspectRatio="xMidYMid meet">
<metadata>
Created by potrace 1.15, written by Peter Selinger 2001-2017
</metadata>
<g transform="translate(0.000000,1273.000000) scale(0.100000,-0.100000)"
fill="#ffffff" stroke="none">
<path d="M2730 12724 c-575 -50 -1099 -247 -1546 -580 -537 -401 -922 -972
-1088 -1616 -32 -123 -44 -189 -78 -403 -17 -110 -17 -563 1 -680 20 -142 39
-249 56 -322 227 -983 955 -1792 1905 -2118 708 -242 1446 -214 2137 81 670
286 1241 858 1528 1529 92 215 162 450 200 670 22 129 45 381 45 500 0 119
-23 371 -45 499 -151 864 -667 1606 -1428 2051 -326 190 -680 310 -1097 371
-100 15 -491 27 -590 18z"/>
<path d="M9695 12693 c-517 -27 -1038 -202 -1475 -495 -1034 -693 -1517 -1943
-1219 -3155 249 -1015 1048 -1841 2054 -2122 279 -78 498 -106 810 -105 248 0
380 13 584 55 1069 219 1936 1023 2235 2070 83 290 110 489 110 809 1 297 -18
452 -85 725 -196 791 -723 1468 -1454 1868 -465 254 -1019 378 -1560 350z"/>
<path d="M2667 6004 c-1201 -138 -2198 -997 -2511 -2164 -185 -690 -109 -1438
208 -2071 153 -303 316 -529 556 -770 486 -487 1109 -782 1793 -850 143 -14
430 -14 572 0 572 57 1106 274 1561 636 194 154 427 405 576 620 449 649 617
1451 467 2235 -135 708 -535 1349 -1114 1787 -421 319 -925 519 -1455 578
-165 18 -490 18 -653 -1z"/>
<path d="M9665 5884 c-613 -36 -1145 -231 -1635 -597 -161 -121 -428 -383
-541 -532 -244 -320 -396 -618 -503 -980 -80 -271 -116 -530 -116 -830 0 -337
42 -606 141 -913 334 -1026 1218 -1797 2279 -1986 195 -34 280 -41 530 -40
211 0 280 4 400 23 538 82 1006 284 1423 613 130 102 381 355 476 478 335 434
527 883 607 1423 21 146 29 495 15 653 -20 218 -84 535 -135 670 -8 22 -28 75
-45 120 -210 562 -610 1065 -1115 1403 -391 262 -857 432 -1316 480 -110 12
-377 20 -465 15z"/>
</g>
</svg>
