<?xml version="1.0" standalone="no"?>
<!DOCTYPE svg PUBLIC "-//W3C//DTD SVG 20010904//EN"
 "http://www.w3.org/TR/2001/REC-SVG-20010904/DTD/svg10.dtd">
<svg version="1.0" xmlns="http://www.w3.org/2000/svg"
 width="754.000000pt" height="1280.000000pt" viewBox="0 0 754.000000 1280.000000"
 preserveAspectRatio="xMidYMid meet">
<metadata>
Created by potrace 1.15, written by Peter Selinger 2001-2017
</metadata>
<g transform="translate(0.000000,1280.000000) scale(0.100000,-0.100000)"
fill="#ccfbf1" stroke="none">
<path d="M6935 12747 c-44 -29 -125 -77 -180 -106 -125 -66 -362 -227 -535
-361 -134 -105 -671 -469 -822 -557 -46 -27 -135 -74 -198 -104 -125 -60 -268
-162 -480 -341 -170 -143 -234 -188 -314 -223 l-68 -30 7 -87 c12 -171 47
-264 265 -698 118 -233 216 -404 247 -427 23 -18 63 -16 99 5 156 90 161 95
171 182 7 66 -16 151 -113 412 -90 242 -128 372 -140 476 l-7 61 75 83 c183
204 239 289 271 415 l21 82 101 36 c120 45 187 84 279 165 38 33 134 103 213
155 79 52 255 179 392 283 136 103 329 237 427 297 251 155 324 205 356 245
29 36 40 80 23 86 -6 2 -46 -20 -90 -49z"/>
<path d="M5169 9785 c-115 -82 -267 -214 -340 -296 -125 -143 -161 -216 -184
-383 -8 -56 -15 -104 -15 -108 0 -4 82 -48 183 -97 195 -95 453 -263 570 -371
168 -155 435 -581 520 -831 44 -127 63 -311 73 -689 11 -401 -21 -632 -137
-995 -73 -229 -142 -347 -221 -374 l-31 -11 7 114 c8 126 -2 188 -36 220 -19
18 -20 27 -15 130 3 61 22 217 41 346 63 428 92 832 83 1165 -7 281 -30 357
-153 522 -30 40 -70 101 -89 137 l-36 64 -77 21 c-88 24 -227 44 -414 62 -154
14 -166 10 -237 -71 -44 -50 -70 -67 -208 -138 -248 -128 -335 -182 -359 -226
-12 -21 -39 -48 -60 -60 -24 -13 -46 -36 -58 -61 -27 -54 -157 -187 -230 -235
-33 -22 -107 -56 -163 -77 -114 -41 -113 -40 -93 -128 6 -30 23 -53 64 -90 49
-44 58 -58 70 -110 8 -33 20 -132 26 -220 14 -211 33 -337 69 -443 58 -173 60
-174 171 -238 170 -96 289 -128 598 -160 86 -9 158 -18 160 -19 10 -8 -32 -76
-67 -108 -53 -50 -65 -95 -57 -214 7 -109 10 -106 -119 -149 -105 -35 -313
-120 -475 -194 -171 -78 -323 -162 -620 -340 -135 -81 -336 -200 -448 -264
-199 -115 -204 -117 -309 -136 -180 -33 -210 -26 -192 47 9 34 24 53 83 101
81 67 173 130 231 160 22 11 51 32 64 45 21 23 23 33 19 86 -3 45 -10 67 -27
85 -44 47 -182 138 -342 227 -190 105 -206 108 -314 55 -115 -55 -290 -197
-527 -425 -162 -156 -281 -306 -420 -531 l-58 -94 1 -91 c0 -49 4 -143 8 -207
8 -116 8 -117 55 -192 86 -138 148 -170 381 -196 50 -5 167 -10 260 -10 195 0
240 11 382 92 87 50 106 58 426 204 233 106 389 181 442 214 65 40 480 220
617 268 70 25 224 62 257 62 4 0 22 -22 39 -48 17 -27 87 -113 154 -193 68
-79 161 -191 208 -249 46 -58 149 -179 228 -268 l145 -164 -6 -256 c-7 -337
-8 -342 -119 -446 -45 -43 -106 -93 -133 -111 -59 -38 -70 -50 -79 -87 -4 -19
-19 -34 -45 -47 -25 -13 -70 -60 -132 -137 -149 -185 -191 -242 -261 -354
-133 -214 -442 -790 -555 -1033 -40 -87 -84 -177 -97 -200 -22 -38 -82 -217
-167 -499 l-32 -108 -61 0 c-171 -1 -694 -21 -781 -31 -55 -6 -134 -22 -175
-36 -183 -59 -360 -68 -538 -28 -153 35 -341 55 -507 56 -160 1 -236 -10 -352
-51 -181 -64 -376 -86 -504 -59 -100 22 -129 -19 -129 -181 l0 -100 2303 0
c1266 0 2606 5 2977 10 1219 19 1932 57 2163 116 87 22 97 31 97 84 0 45 -14
117 -24 127 -10 11 -53 -7 -116 -48 -61 -39 -67 -41 -120 -35 -35 4 -96 26
-170 61 -63 29 -143 60 -176 69 -109 28 -323 47 -546 49 l-217 2 6 25 c11 54
47 172 98 330 302 933 338 1098 366 1710 28 607 -13 916 -211 1610 -127 446
-161 597 -185 822 l-15 147 124 223 c268 483 347 676 390 948 38 237 50 464
50 955 1 433 -1 488 -17 560 -46 198 -148 460 -264 680 -140 264 -300 539
-361 621 -83 111 -209 243 -327 343 -49 42 -153 132 -230 200 -273 242 -310
257 -426 176z"/>
<path d="M3105 7467 c-9 -14 -21 -79 -30 -162 -18 -160 -36 -258 -70 -371 -48
-159 -89 -224 -153 -244 -51 -17 -223 -114 -247 -140 -11 -12 -33 -47 -50 -79
-27 -49 -35 -58 -75 -69 -77 -22 -75 -20 -74 -120 0 -83 3 -93 32 -138 17 -27
38 -76 46 -108 21 -81 32 -212 18 -228 -16 -20 -42 -118 -42 -159 0 -21 5 -50
12 -64 17 -38 97 -91 157 -104 108 -23 156 -9 247 71 75 68 157 120 346 219
95 50 174 92 175 93 7 6 -22 194 -43 281 -15 61 -27 145 -31 215 -6 123 -7
118 46 162 40 34 20 102 -39 133 -45 23 -78 20 -86 -9 -3 -14 -13 -27 -21 -30
-15 -6 -93 3 -93 11 0 2 7 17 15 32 8 16 19 49 24 72 25 115 58 707 41 740
-16 29 -85 27 -105 -4z"/>
</g>
</svg>
