<?xml version="1.0" standalone="no"?>
<!DOCTYPE svg PUBLIC "-//W3C//DTD SVG 20010904//EN"
 "http://www.w3.org/TR/2001/REC-SVG-20010904/DTD/svg10.dtd">
<svg version="1.0" xmlns="http://www.w3.org/2000/svg"
 width="1280.000000pt" height="1112.000000pt" viewBox="0 0 1280.000000 1112.000000"
 preserveAspectRatio="xMidYMid meet">
<metadata>
Created by potrace 1.15, written by Peter Selinger 2001-2017
</metadata>
<g transform="translate(0.000000,1112.000000) scale(0.100000,-0.100000)"
fill="#000000" stroke="none">
<path d="M5750 10980 c-107 -77 -202 -150 -211 -163 -13 -17 -20 -75 -33 -267
-9 -135 -22 -311 -28 -393 l-11 -147 -109 -80 c-82 -61 -108 -85 -108 -102 0
-13 -11 -183 -25 -378 -14 -195 -34 -483 -45 -639 -11 -157 -20 -294 -20 -306
0 -16 54 -65 210 -189 l210 -168 0 -1102 0 -1101 168 -102 167 -102 7 347 c3
191 11 685 17 1097 16 1055 30 2007 41 2655 4 305 7 557 4 559 -2 2 -13 -8
-25 -22 -27 -36 -79 -38 -79 -4 -1 84 24 554 30 565 4 8 107 -143 264 -385
l257 -398 -4 -340 -5 -340 115 -116 114 -115 10 -1535 c5 -844 12 -1715 15
-1936 l6 -402 295 -151 c162 -84 296 -150 298 -148 2 2 9 372 15 823 7 451 13
821 14 822 2 2 196 -172 432 -386 l429 -388 -8 -449 c-4 -247 -10 -485 -13
-530 l-5 -80 -102 -31 c-56 -17 -183 -56 -282 -86 -99 -30 -283 -85 -410 -122
-126 -36 -260 -75 -296 -86 l-66 -19 -6 -682 c-11 -1289 -89 -2387 -252 -3575
-19 -138 -35 -255 -35 -259 0 -9 371 2 535 16 281 24 623 79 819 132 l79 21
64 136 c662 1390 1021 2846 1148 4641 19 271 19 354 3 347 -277 -113 -539
-211 -827 -308 -129 -43 -235 -78 -236 -76 -1 1 8 245 20 542 12 297 20 544
17 548 -2 5 -221 207 -485 449 -265 243 -495 454 -512 469 l-30 27 -230 -124
-230 -123 -7 172 c-7 177 -29 1876 -28 2208 l0 187 -145 156 -145 156 0 108
c-1 59 -5 221 -10 361 l-8 255 -268 398 c-147 219 -267 398 -268 398 -1 0 -89
-63 -196 -140z"/>
<path d="M4435 8321 l-460 -277 -7 -55 c-3 -30 -11 -317 -17 -639 -22 -1178
-33 -1655 -40 -1662 -3 -3 -131 -70 -283 -148 l-278 -142 0 -71 c0 -107 27
-528 51 -810 11 -137 19 -250 16 -253 -2 -3 -123 52 -268 122 -459 220 -990
475 -1095 525 l-102 48 -93 -30 c-346 -111 -678 -167 -1034 -176 -304 -7 -509
15 -738 82 -45 13 -83 22 -84 21 -7 -6 93 -459 157 -717 191 -760 499 -1547
777 -1987 142 -225 403 -507 613 -664 432 -322 1059 -677 1565 -885 126 -52
395 -152 395 -147 0 2 -33 54 -73 116 -648 999 -1126 2198 -1346 3376 -48 256
-121 761 -121 839 0 13 32 -1 255 -107 72 -34 373 -177 670 -318 297 -140 541
-256 543 -258 4 -2 52 -378 49 -380 -1 -2 -263 132 -582 296 l-580 299 -3 -76
c-2 -42 1 -80 5 -84 8 -8 933 -453 1109 -534 l72 -33 12 -73 c190 -1201 503
-2218 957 -3119 57 -112 105 -205 106 -206 1 -2 36 -11 77 -22 264 -70 521
-108 838 -127 97 -6 103 -5 98 12 -15 54 -93 407 -136 617 -203 1003 -330
2029 -395 3206 -30 554 -36 781 -42 1562 l-6 797 -89 -45 c-50 -25 -91 -44
-93 -42 -2 2 3 217 11 478 7 261 18 639 24 840 5 201 15 535 21 743 6 208 9
380 7 382 -1 2 -210 -122 -463 -274z"/>
<path d="M11075 8173 c-27 -2 -124 -13 -215 -24 -296 -37 -546 -94 -839 -191
l-184 -61 7 -66 c85 -920 98 -1758 41 -2576 -8 -115 -17 -224 -19 -241 -4 -32
-3 -33 197 -152 334 -199 598 -335 887 -457 136 -57 470 -172 567 -195 46 -10
52 -15 48 -33 -3 -12 -23 -105 -45 -207 -216 -987 -629 -1945 -1244 -2884 -63
-97 -110 -176 -103 -176 7 0 38 8 69 18 51 15 62 24 115 92 479 609 884 1474
1200 2565 54 187 194 727 190 731 -1 1 -115 32 -252 69 -138 37 -253 69 -256
71 -3 1 5 63 18 136 54 314 97 661 125 1028 17 220 17 1117 0 1340 -27 361
-73 781 -108 1005 -4 27 -3 37 3 30 6 -5 66 -91 133 -190 370 -540 742 -1031
1094 -1440 l146 -170 0 -123 c0 -401 -56 -970 -141 -1427 -186 -992 -597
-2032 -1175 -2971 -24 -39 -44 -74 -44 -77 0 -4 47 28 104 70 l105 78 89 150
c378 633 688 1321 882 1960 213 701 312 1334 327 2075 l6 315 -96 108 c-206
231 -494 585 -804 987 -158 205 -577 765 -607 813 -18 26 -21 27 -95 25 -42
-1 -98 -3 -126 -5z"/>
<path d="M11650 7022 l0 -83 381 -437 c210 -240 394 -450 410 -467 l29 -30 0
55 0 55 -396 480 c-217 264 -401 487 -409 495 -13 12 -15 4 -15 -68z"/>
<path d="M11680 6438 l0 -73 276 -290 c151 -160 302 -317 335 -350 l59 -60 0
55 0 55 -286 315 c-158 173 -309 339 -335 368 l-49 54 0 -74z"/>
<path d="M11680 5835 l1 -90 189 -148 190 -147 0 48 0 47 -190 190 -190 190 0
-90z"/>
<path d="M11650 5399 l0 -75 55 -54 55 -54 0 55 c0 49 -5 61 -46 119 -26 36
-51 69 -55 75 -5 5 -9 -23 -9 -66z"/>
<path d="M5350 5270 c0 -34 49 -916 65 -1180 76 -1221 157 -2187 260 -3115 48
-433 112 -932 121 -946 3 -5 16 -9 30 -9 31 0 31 -8 -6 359 -142 1405 -262
3097 -310 4361 -6 151 -13 317 -16 368 l-6 93 -56 38 c-84 55 -82 55 -82 31z"/>
<path d="M5804 4939 c54 -1175 108 -2283 136 -2799 5 -102 19 -351 30 -555 11
-203 25 -444 30 -535 5 -91 21 -354 35 -585 14 -231 28 -426 30 -433 2 -6 16
-12 30 -12 30 0 29 -14 15 225 -48 856 -102 2486 -130 3935 -6 305 -12 606
-13 668 -3 129 12 105 -116 196 l-54 39 7 -144z"/>
<path d="M6197 4808 c4 -43 30 -691 43 -1068 26 -749 45 -1770 56 -3032 l6
-708 28 0 28 0 6 1143 c3 628 7 1698 8 2377 l3 1235 -80 42 c-44 23 -85 42
-90 43 -6 0 -10 -14 -8 -32z"/>
<path d="M6569 3838 c5 -1301 -25 -2708 -79 -3628 -14 -232 -17 -210 30 -210
l40 0 0 73 c0 39 5 191 10 337 5 146 19 526 30 845 60 1733 70 2023 95 2710 8
226 15 448 15 495 l0 85 -69 53 c-37 28 -70 52 -72 52 -2 0 -2 -366 0 -812z"/>
<path d="M9602 4360 c-138 -1353 -514 -2636 -1129 -3853 -69 -136 -124 -249
-122 -251 2 -2 20 -6 40 -10 42 -7 22 -35 172 234 99 176 291 563 382 770 322
727 556 1508 699 2330 57 325 131 908 118 921 -4 4 -36 23 -73 42 l-65 37 -22
-220z"/>
<path d="M10040 4358 c-44 -331 -135 -894 -184 -1135 -184 -901 -528 -1765
-1082 -2710 l-86 -146 23 -18 c13 -10 29 -19 35 -19 24 0 323 514 483 830 399
788 672 1590 835 2452 37 193 82 489 92 605 l6 68 -61 38 c-34 20 -61 36 -61
35z"/>
<path d="M10416 4158 c-2 -7 -9 -58 -16 -113 -6 -55 -27 -190 -45 -300 -183
-1082 -594 -2113 -1257 -3148 -48 -75 -88 -141 -88 -146 0 -8 46 -21 75 -21
13 0 159 216 270 400 529 872 909 1844 1109 2840 36 179 76 403 76 425 0 7
-25 27 -55 44 -62 35 -64 36 -69 19z"/>
<path d="M10735 4008 c-2 -7 -13 -71 -25 -143 -183 -1105 -723 -2391 -1357
-3234 -35 -46 -63 -87 -63 -91 0 -4 20 -11 44 -17 l45 -10 105 151 c509 735
887 1512 1141 2348 67 219 153 560 195 773 17 88 33 167 36 176 3 11 -11 22
-49 37 -61 26 -66 26 -72 10z"/>
<path d="M10985 3853 c-267 -1222 -694 -2229 -1327 -3125 -37 -53 -68 -99 -68
-102 0 -3 10 -6 23 -6 17 0 44 32 123 143 547 770 945 1605 1223 2569 46 159
133 517 129 534 -2 8 -22 26 -45 39 l-42 25 -16 -77z"/>
<path d="M2370 3822 l0 -78 401 -208 c221 -114 403 -206 405 -203 2 2 8 31 12
66 l9 62 -81 44 c-45 24 -227 123 -405 219 -179 97 -328 176 -333 176 -4 0 -8
-35 -8 -78z"/>
<path d="M11216 3753 c-48 -201 -162 -588 -241 -823 -282 -830 -650 -1545
-1106 -2142 l-21 -28 39 0 c38 0 38 0 164 178 508 714 880 1475 1140 2332 52
172 139 503 139 531 0 13 -68 69 -82 69 -2 0 -16 -53 -32 -117z"/>
<path d="M2450 3416 c0 -55 4 -87 13 -94 17 -14 564 -322 571 -322 3 0 6 31 6
68 l0 68 -289 182 c-159 100 -292 182 -295 182 -3 0 -6 -38 -6 -84z"/>
</g>
</svg>
