<?xml version="1.0" standalone="no"?>
<!DOCTYPE svg PUBLIC "-//W3C//DTD SVG 20010904//EN"
 "http://www.w3.org/TR/2001/REC-SVG-20010904/DTD/svg10.dtd">
<svg version="1.0" xmlns="http://www.w3.org/2000/svg"
 width="1280.000000pt" height="719.000000pt" viewBox="0 0 1280.000000 719.000000"
 preserveAspectRatio="xMidYMid meet">
<metadata>
Created by potrace 1.15, written by Peter Selinger 2001-2017
</metadata>
<g transform="translate(0.000000,719.000000) scale(0.100000,-0.100000)"
fill="#ccfbf1" stroke="none">
<path d="M5925 7174 c-55 -8 -125 -13 -155 -12 -76 3 -143 -35 -246 -137 -105
-104 -136 -166 -142 -285 -3 -69 0 -95 16 -138 l21 -54 -30 -30 c-33 -35 -34
-44 -15 -119 34 -131 54 -167 110 -203 34 -22 59 -47 71 -72 36 -73 17 -236
-29 -250 -42 -12 -214 -115 -312 -185 -175 -127 -355 -283 -379 -330 -8 -15
-23 -78 -34 -140 -17 -94 -29 -130 -67 -204 -45 -86 -46 -91 -41 -153 7 -75 8
-74 -90 -208 -97 -135 -113 -174 -123 -298 -5 -56 -14 -114 -21 -128 -13 -30
-11 -33 138 -205 34 -40 81 -97 104 -128 30 -40 47 -54 59 -50 9 3 37 -6 61
-20 24 -13 58 -25 75 -25 39 0 194 -100 217 -140 14 -23 14 -45 2 -211 -20
-253 -55 -456 -92 -535 -16 -32 -16 -37 -1 -62 18 -30 15 -61 -18 -184 -11
-43 -19 -134 -24 -288 -5 -124 -13 -243 -19 -265 -18 -68 -14 -153 9 -191 35
-56 90 -75 263 -88 l152 -11 -3 -125 c-4 -191 -31 -466 -54 -555 -17 -63 -22
-118 -25 -260 -2 -119 -13 -250 -31 -387 l-27 -207 -399 -4 -399 -3 -29 40
c-17 23 -45 71 -63 107 -19 37 -41 69 -50 73 -9 3 -59 6 -111 6 -53 0 -105 5
-117 11 -12 7 -45 34 -74 60 -28 27 -58 49 -67 49 -8 0 -25 24 -39 53 -13 28
-44 77 -68 107 -24 30 -59 74 -76 96 l-33 41 61 49 c121 97 136 164 64 284
-46 75 -92 203 -115 315 -7 33 -18 64 -25 70 -7 5 -15 30 -18 55 -3 25 -22 96
-41 158 -20 63 -36 117 -36 122 0 4 12 11 26 14 33 9 30 43 -4 38 -20 -3 -22
1 -22 43 0 25 -9 99 -21 163 -29 159 -24 195 45 327 43 82 56 116 56 150 0 39
11 61 84 172 101 153 128 216 129 298 0 79 -21 122 -129 260 -125 160 -152
220 -133 304 12 53 9 58 -89 159 -84 87 -107 128 -88 157 23 34 81 75 142 100
57 23 60 26 87 92 15 37 91 196 169 353 l140 285 59 37 c54 34 59 40 59 73 0
20 9 53 20 75 11 22 20 45 20 52 0 7 -36 39 -80 72 -94 69 -118 100 -101 129
7 10 18 69 25 131 14 115 22 142 52 167 16 13 17 12 9 -6 -4 -11 -10 -32 -13
-47 -3 -23 1 -29 23 -38 40 -15 76 -12 112 10 26 15 38 17 59 10 14 -6 51 -10
83 -10 189 0 326 220 229 368 -81 121 -292 120 -363 -2 -14 -24 -25 -52 -25
-64 0 -29 -14 -28 -39 4 -16 20 -20 39 -18 81 2 47 -1 57 -23 74 -37 29 -62
20 -86 -30 l-21 -43 -26 45 c-39 66 -113 139 -197 193 -68 44 -75 46 -105 35
-17 -6 -51 -11 -76 -11 -70 0 -108 -16 -165 -70 l-53 -50 -73 0 c-102 0 -202
16 -248 40 -34 17 -59 20 -177 20 l-137 0 35 36 c78 82 275 244 296 244 14 0
23 6 23 15 0 8 20 37 45 65 25 28 48 62 51 75 8 34 -12 80 -48 110 l-30 25
-26 -19 c-15 -11 -66 -55 -113 -98 -47 -43 -153 -139 -235 -213 -230 -209
-285 -250 -334 -250 -22 0 -68 -11 -102 -25 -34 -14 -75 -25 -91 -25 -32 0
-33 11 -7 76 11 26 10 38 -13 95 -14 35 -35 102 -47 149 -29 108 -79 217 -116
252 -16 15 -46 34 -66 43 -29 11 -38 21 -38 39 0 44 -28 93 -60 106 -18 7 -59
45 -91 84 -64 75 -119 116 -158 116 -13 0 -50 -7 -82 -15 -32 -9 -121 -24
-197 -35 -188 -26 -242 -47 -317 -124 -109 -110 -140 -209 -133 -420 4 -121 7
-140 26 -164 39 -48 65 -105 71 -157 5 -45 9 -52 42 -68 20 -10 68 -24 107
-31 38 -7 74 -16 81 -20 7 -5 11 -40 11 -94 l0 -87 -88 -86 c-48 -47 -104 -98
-125 -113 -45 -33 -148 -81 -195 -91 -29 -6 -38 -16 -63 -70 -19 -39 -32 -87
-36 -128 -5 -61 -8 -66 -32 -69 -20 -2 -33 -17 -62 -73 -20 -38 -51 -86 -70
-105 -19 -20 -42 -60 -53 -93 -14 -42 -28 -63 -48 -75 -51 -30 -108 -138 -108
-205 0 -11 -24 -46 -54 -78 -64 -69 -85 -120 -128 -304 -16 -71 -46 -173 -65
-225 -51 -135 -72 -206 -78 -270 -6 -55 -6 -55 47 -119 75 -92 101 -105 204
-102 53 1 104 -4 139 -15 76 -22 117 -12 204 46 46 32 99 57 144 71 175 50
182 53 185 77 3 21 106 142 121 142 4 0 12 -28 18 -62 7 -35 23 -112 37 -173
41 -177 36 -233 -47 -460 -103 -286 -134 -425 -105 -481 8 -16 31 -59 51 -95
31 -55 39 -83 51 -173 l14 -107 52 -55 52 -55 -5 -77 c-6 -103 -45 -631 -52
-707 -44 -514 -91 -841 -170 -1190 -4 -20 -13 -20 -382 -21 -208 0 -404 -4
-435 -8 l-57 -7 -11 -56 c-14 -64 -10 -187 6 -203 7 -7 63 -7 180 1 100 6 404
10 744 8 316 -1 1246 1 2065 6 966 5 1838 3 2480 -4 731 -8 1113 -8 1460 0
794 19 2927 26 3515 11 554 -13 755 -10 920 15 94 14 152 15 579 3 444 -13
747 -8 766 12 4 3 12 36 18 72 9 51 8 80 -2 128 -7 35 -15 65 -17 67 -6 6
-370 7 -711 1 -160 -3 -294 -3 -297 0 -2 3 -14 68 -25 145 -19 128 -30 241
-91 925 -11 124 -23 237 -26 252 -5 23 -1 29 28 41 40 17 83 61 97 100 6 15
18 85 26 155 34 280 148 795 236 1068 70 217 99 353 99 465 0 59 -24 248 -39
313 -9 38 -8 41 47 110 82 105 172 188 241 225 46 24 61 37 57 49 -27 90 -38
243 -19 276 8 15 13 13 37 -18 34 -45 74 -66 126 -66 57 0 99 20 142 68 84 93
65 207 -43 262 -43 23 -58 19 -98 -23 -25 -27 -51 -26 -51 2 0 9 9 24 20 34
27 23 25 49 -6 78 -39 37 -54 72 -70 172 -16 98 -42 154 -77 163 -12 3 -43 -4
-69 -16 -25 -11 -52 -18 -60 -15 -8 3 -24 36 -36 73 -45 139 -145 264 -268
333 l-53 30 31 52 c41 71 77 116 201 254 58 65 119 137 136 160 17 23 45 50
63 59 53 26 68 45 68 80 0 39 -4 41 -132 47 l-87 5 -29 -52 c-17 -28 -50 -79
-76 -114 -45 -61 -303 -354 -316 -360 -12 -5 -62 68 -81 119 -21 55 -25 159
-7 192 6 12 28 41 48 64 30 35 39 55 48 112 7 38 12 96 12 128 0 56 -1 58 -54
108 -54 52 -70 90 -71 167 0 65 -125 175 -296 263 l-113 58 -122 -7 c-141 -7
-229 -30 -291 -76 -32 -24 -54 -55 -96 -138 -86 -168 -111 -247 -105 -335 4
-63 13 -90 57 -183 29 -60 72 -169 96 -242 25 -74 54 -149 66 -168 12 -19 20
-36 18 -38 -2 -2 -26 -10 -54 -19 -51 -16 -89 -24 -269 -52 -54 -8 -118 -24
-142 -35 -62 -27 -140 -104 -242 -239 -49 -65 -111 -133 -142 -158 -49 -38
-63 -58 -115 -162 -33 -66 -65 -120 -71 -120 -20 -1 -61 -56 -73 -98 -14 -49
-55 -113 -134 -206 -75 -88 -102 -133 -122 -198 -15 -50 -20 -56 -77 -89 -98
-56 -192 -150 -235 -237 -30 -60 -37 -87 -41 -151 -4 -72 -2 -84 27 -144 17
-36 36 -93 42 -126 11 -74 12 -75 88 -235 34 -71 68 -154 76 -185 16 -60 20
-140 7 -158 -4 -6 -59 -18 -123 -28 -64 -9 -152 -25 -195 -36 -90 -23 -224
-84 -270 -123 -17 -15 -71 -84 -120 -154 -49 -71 -108 -152 -131 -180 -24 -29
-43 -60 -43 -68 0 -22 -24 -67 -48 -88 -16 -15 -20 -15 -25 -3 -3 8 0 22 7 32
12 16 10 20 -17 33 -43 22 -71 84 -103 226 -24 106 -25 126 -15 176 15 74 14
113 -4 184 -21 82 -129 300 -237 478 -49 82 -94 162 -100 178 -6 17 -19 31
-31 34 -244 54 -347 67 -542 68 -188 2 -203 4 -247 26 -27 13 -48 26 -48 30
-1 68 -25 194 -45 233 -14 28 -25 51 -25 52 0 1 24 -1 53 -5 28 -4 117 -8 197
-8 l146 -1 36 48 c46 62 101 158 178 312 77 154 136 244 195 299 37 34 45 48
45 76 0 30 5 37 33 49 80 36 82 59 15 132 -23 25 -41 56 -45 77 -4 30 -1 37
25 55 44 32 76 42 192 58 58 8 123 19 144 25 32 9 41 8 47 -4 5 -7 17 -24 27
-37 19 -24 21 -24 88 -11 183 36 298 91 334 160 47 94 8 221 -87 282 -38 23
-58 29 -102 29 -64 0 -90 -14 -149 -78 -32 -35 -45 -42 -75 -42 -43 0 -48 12
-12 28 49 22 23 92 -34 92 -25 0 -29 5 -45 61 -22 80 -89 150 -166 173 -51 15
-56 15 -134 -9 -65 -20 -88 -33 -119 -65 -34 -37 -42 -40 -88 -40 -66 0 -99
17 -188 95 -92 80 -139 100 -224 92 -34 -4 -91 -16 -127 -27 -63 -20 -145 -29
-157 -16 -3 3 11 33 32 67 28 46 40 77 45 123 4 43 19 87 52 151 53 104 127
288 157 391 12 40 28 77 37 85 22 18 44 64 44 94 0 20 -12 33 -55 60 -30 19
-56 35 -59 35 -12 0 -119 -228 -216 -460 -56 -135 -126 -296 -156 -359 -52
-110 -55 -113 -81 -107 -20 4 -332 45 -350 46 -1 0 2 13 7 29 4 15 6 39 4 52
-1 13 -8 59 -14 102 l-12 78 32 29 c46 43 38 76 -66 267 -29 52 -29 53 -11 84
23 41 22 56 -13 144 -16 42 -30 94 -30 117 0 36 -7 48 -52 97 -29 31 -57 64
-63 74 -13 21 -114 47 -180 46 -27 -1 -95 -8 -150 -15z m-2524 -1505 c4 -68
10 -139 14 -157 7 -29 4 -38 -27 -70 -30 -32 -36 -47 -46 -117 -10 -70 -100
-453 -109 -464 -2 -3 -23 5 -47 16 -38 19 -46 29 -59 70 -9 26 -21 89 -27 138
-11 92 -28 136 -95 250 -19 33 -35 74 -35 91 0 28 5 33 43 48 91 34 166 124
213 253 l27 73 71 -4 71 -3 6 -124z m4020 -189 c-17 -28 -31 -59 -31 -70 0
-17 -7 -20 -47 -20 -67 0 -105 -26 -137 -94 -14 -30 -26 -60 -26 -65 0 -28
-45 -5 -125 62 -33 28 -63 53 -67 56 -4 3 18 7 48 8 69 2 146 32 294 117 63
36 116 63 118 61 2 -2 -10 -27 -27 -55z m1044 -1 c11 -17 0 -20 -21 -4 -17 13
-17 14 -2 15 9 0 20 -5 23 -11z m-3315 -1098 c0 -11 2 -25 3 -33 2 -7 2 -10 0
-5 -3 4 -11 7 -19 7 -8 0 -14 10 -14 25 0 16 6 25 15 25 8 0 15 -9 15 -19z
m5020 -330 c18 -97 -9 -166 -113 -279 -29 -32 -66 -74 -83 -95 -37 -46 -54
-42 -91 20 -67 114 18 279 198 385 35 21 67 34 71 30 4 -4 12 -31 18 -61z
m-11 -503 c-12 -100 -50 -158 -103 -158 -32 0 -13 65 38 130 24 32 49 67 56
79 6 13 13 21 15 19 1 -1 -1 -33 -6 -70z m-3409 -1345 c18 -24 23 -25 30 -12
8 14 34 16 166 17 l156 1 -7 -56 c-4 -31 -10 -66 -15 -77 -5 -15 5 -45 41
-111 26 -49 57 -124 68 -165 23 -82 28 -170 10 -170 -7 0 -1 -10 13 -23 14
-13 33 -45 42 -73 10 -27 24 -66 31 -86 l13 -37 -52 -11 c-173 -37 -406 -51
-531 -30 -49 8 -66 7 -93 -6 -34 -16 -197 -28 -240 -17 -19 4 -22 10 -18 32 3
14 10 100 16 191 11 191 16 214 39 204 68 -28 155 -25 194 6 21 17 22 28 27
218 5 144 10 205 19 216 21 26 67 20 91 -11z m3179 -79 l110 -7 -5 -31 c-12
-67 -46 -198 -89 -336 -24 -80 -49 -163 -54 -185 l-11 -40 -112 8 c-62 5 -148
6 -190 4 l-78 -5 0 72 c0 165 44 428 86 508 l16 31 109 -7 c60 -3 158 -9 218
-12z m-613 -48 c3 -8 2 -39 -3 -68 -8 -50 -10 -52 -21 -30 -9 15 -11 38 -6 67
6 45 20 58 30 31z m1733 -95 c137 -102 211 -146 281 -167 l57 -17 6 -166 c3
-91 15 -254 26 -361 12 -107 23 -222 26 -255 l6 -60 -158 0 c-87 0 -239 -4
-339 -9 l-181 -8 -9 223 c-5 123 -9 301 -8 394 0 201 12 253 79 347 25 35 57
84 72 110 16 26 30 48 32 48 2 0 52 -36 110 -79z m-9220 49 c41 -11 95 -20
119 -20 34 0 48 -5 62 -23 10 -13 42 -36 72 -51 102 -55 102 -56 58 -202 -38
-125 -39 -186 -5 -219 13 -14 32 -25 42 -26 13 0 11 -3 -7 -10 -24 -10 -85
-13 -412 -23 l-148 -5 0 40 c0 75 43 323 85 492 20 78 19 77 134 47z m-433
-395 c-3 -93 -15 -246 -26 -340 -12 -93 -25 -232 -29 -307 -7 -104 -14 -147
-28 -175 -24 -46 -36 -50 -64 -22 -19 19 -21 28 -14 93 3 39 15 121 25 181 11
61 39 265 64 455 25 190 49 361 53 380 13 69 24 -87 19 -265z m4637 160 l127
0 0 -81 c0 -45 -3 -109 -6 -143 -6 -56 -9 -61 -27 -55 -12 4 -59 6 -106 6 -56
0 -94 4 -113 14 -20 10 -53 14 -107 12 -66 -3 -82 0 -100 16 -12 11 -21 14
-21 8 0 -14 -76 -17 -84 -3 -3 4 2 61 12 125 l17 117 140 -8 c77 -4 197 -8
268 -8z m3243 -127 c-3 -79 -17 -224 -29 -323 l-23 -180 -24 34 c-40 53 -100
83 -171 84 l-61 2 6 38 c9 53 25 82 87 152 57 65 88 125 89 168 0 16 5 38 11
50 10 19 107 115 118 117 2 0 1 -64 -3 -142z m-3536 -348 c18 -18 26 -19 58
-10 52 14 150 11 262 -8 l95 -17 -3 -190 c-2 -104 -5 -191 -7 -194 -9 -9 -610
60 -621 72 -2 2 3 55 11 118 8 62 17 143 21 179 l5 65 80 2 c68 3 82 0 99 -17z
m4070 16 c0 -1 -13 -37 -29 -81 -40 -112 -75 -194 -132 -307 -27 -54 -49 -108
-49 -122 0 -13 9 -43 20 -67 18 -41 18 -44 2 -47 -58 -11 -94 -32 -162 -97
-73 -70 -117 -101 -126 -92 -9 9 100 677 126 777 l10 35 170 1 c93 0 170 0
170 0z m758 -157 c-3 -54 -5 -59 -25 -59 -27 0 -30 22 -8 60 8 14 14 35 15 48
0 14 4 20 11 17 6 -4 9 -32 7 -66z m-8690 17 c39 -7 72 -9 72 -4 0 15 46 18
100 5 54 -12 55 -13 58 -51 4 -47 -14 -93 -41 -108 -25 -13 -352 -12 -412 2
-22 5 -45 16 -51 24 -16 22 -27 20 -19 -4 4 -11 2 -20 -4 -20 -7 0 -11 28 -11
74 l0 75 43 9 c61 14 181 13 265 -2z m5494 -136 c16 -58 53 -199 82 -315 30
-115 58 -221 64 -235 15 -37 55 -70 103 -84 39 -12 43 -16 54 -60 9 -35 9 -49
1 -51 -28 -10 -1022 -26 -1193 -19 l-193 7 0 41 c0 22 7 129 16 236 8 107 21
274 27 370 l12 175 70 13 c57 11 733 32 900 28 28 -1 30 -3 57 -106z m-4418
-31 c17 -28 18 -46 11 -206 -7 -162 -9 -178 -31 -211 -29 -43 -30 -77 -4 -202
10 -52 17 -97 14 -100 -3 -3 -334 -7 -735 -9 l-729 -3 0 58 c0 33 9 118 19
191 11 72 21 162 22 199 l2 66 184 -4 c167 -4 184 -6 198 -23 11 -15 15 -16
15 -5 0 11 4 10 16 -5 36 -46 76 -141 81 -192 7 -64 35 -93 135 -142 87 -42
168 -61 263 -61 102 0 172 20 210 61 38 39 98 74 151 88 23 6 54 21 69 33 27
21 27 23 21 102 -3 45 -9 100 -12 122 -5 33 1 56 27 115 17 41 34 93 37 117 2
23 8 42 11 42 4 0 15 -14 25 -31z m6256 -8 c0 -6 -18 -97 -39 -203 -21 -106
-42 -218 -46 -248 -10 -75 -20 -97 -63 -145 -20 -23 -42 -50 -49 -61 -12 -19
-12 -19 -28 0 -8 11 -15 33 -15 48 0 25 -7 32 -42 48 -24 10 -88 23 -144 28
-107 11 -180 34 -168 53 3 6 6 31 6 56 -1 35 -11 60 -47 116 -25 39 -45 76
-45 83 0 8 30 13 93 16 80 4 110 11 230 56 75 29 150 52 166 52 23 0 34 8 50
34 29 47 141 100 141 67z m1374 -117 c3 -26 6 -170 6 -320 l0 -274 -128 0
c-71 0 -131 2 -134 5 -3 3 1 36 8 73 7 37 24 139 39 227 14 88 33 194 43 235
l17 74 45 12 c25 7 57 12 71 13 24 1 27 -3 33 -45z m888 -169 c4 -16 17 -106
28 -200 11 -93 23 -182 26 -197 l6 -28 -380 0 -380 0 -7 168 c-4 92 -8 191 -9
220 l-1 53 245 0 c135 0 281 4 325 8 125 13 137 11 147 -24z m-5551 -30 c46
-8 109 -22 139 -32 l55 -18 -1 -55 c0 -30 -4 -107 -8 -171 l-9 -117 -101 -7
c-185 -14 -576 -21 -576 -10 0 6 5 28 10 50 5 22 16 94 25 160 9 66 20 144 26
174 l11 54 173 -6 c94 -4 210 -14 256 -22z m-4623 -132 c2 0 -2 -62 -9 -137
l-13 -136 -43 -2 c-24 -1 -53 -2 -65 -2 -15 -1 -22 4 -21 14 2 22 45 273 48
287 3 8 17 6 52 -5 26 -9 49 -18 51 -19z"/>
</g>
</svg>
