<?xml version="1.0" standalone="no"?>
<!DOCTYPE svg PUBLIC "-//W3C//DTD SVG 20010904//EN"
 "http://www.w3.org/TR/2001/REC-SVG-20010904/DTD/svg10.dtd">
<svg version="1.0" xmlns="http://www.w3.org/2000/svg"
 width="1280.000000pt" height="1280.000000pt" viewBox="0 0 1280.000000 1280.000000"
 preserveAspectRatio="xMidYMid meet">
<metadata>
Created by potrace 1.15, written by Peter Selinger 2001-2017
</metadata>
<g transform="translate(0.000000,1280.000000) scale(0.100000,-0.100000)"
fill="#ffffff" stroke="none">
<path d="M1548 11770 c-242 -41 -425 -202 -500 -440 l-23 -75 0 -1465 c0
-1604 -3 -1511 60 -1645 68 -142 201 -264 346 -315 88 -31 259 -39 349 -16
176 44 321 159 399 317 71 144 71 141 71 889 l0 665 1463 -1461 1462 -1462 85
-41 c244 -119 516 -75 705 114 189 189 233 461 114 705 l-41 85 -1461 1462
-1461 1462 694 3 695 3 80 28 c160 57 285 167 355 312 52 109 64 170 57 301
-6 127 -28 202 -89 295 -99 154 -252 252 -435 279 -82 12 -2855 12 -2925 0z"/>
<path d="M8335 11773 c-208 -30 -385 -155 -472 -334 -51 -104 -66 -170 -66
-279 0 -262 163 -487 418 -577 l80 -28 695 -3 694 -3 -1460 -1462 c-948 -948
-1470 -1478 -1487 -1508 -14 -25 -38 -82 -53 -125 -34 -100 -39 -253 -10 -349
63 -211 232 -378 437 -431 83 -22 225 -22 308 0 35 9 96 33 135 53 66 34 167
132 1534 1497 l1462 1461 0 -670 c0 -548 3 -683 15 -739 37 -175 165 -337 326
-414 112 -54 173 -66 305 -60 91 4 122 10 189 36 100 40 200 114 260 195 59
77 77 113 106 207 l24 75 0 1470 0 1470 -24 75 c-64 206 -208 351 -416 421
l-70 24 -1450 1 c-797 1 -1463 -1 -1480 -3z"/>
<path d="M5433 6139 c-65 -11 -168 -49 -224 -84 -24 -15 -700 -682 -1501
-1483 l-1457 -1456 -3 694 -3 695 -28 78 c-91 257 -312 418 -577 420 -109 0
-175 -15 -279 -66 -152 -74 -270 -218 -318 -387 -17 -62 -18 -139 -18 -1535
l0 -1470 23 -73 c66 -211 212 -357 422 -423 l75 -24 1470 0 1470 0 75 24 c94
29 130 47 207 106 81 60 155 160 195 260 26 67 32 98 36 189 6 132 -6 193 -60
305 -77 161 -239 289 -414 326 -56 12 -191 15 -739 15 l-670 0 1461 1463 1462
1462 41 85 c120 244 76 515 -114 706 -140 140 -340 205 -532 173z"/>
<path d="M7161 6139 c-179 -32 -350 -155 -433 -314 -56 -108 -72 -174 -72
-295 1 -122 29 -221 90 -318 24 -39 502 -524 1487 -1509 l1452 -1453 -670 0
c-548 0 -683 -3 -739 -15 -217 -46 -406 -228 -462 -446 -20 -77 -22 -213 -5
-289 48 -203 208 -378 413 -447 l83 -28 1475 0 1475 0 75 24 c209 67 354 212
421 421 l24 75 0 1475 0 1475 -27 81 c-48 141 -127 245 -244 324 -189 126
-424 138 -628 33 -101 -52 -212 -166 -260 -266 -65 -135 -66 -138 -66 -882 l0
-670 -1452 1452 c-986 985 -1471 1463 -1510 1487 -117 74 -294 109 -427 85z"/>
</g>
</svg>
