<?xml version="1.0" standalone="no"?>
<!DOCTYPE svg PUBLIC "-//W3C//DTD SVG 20010904//EN"
 "http://www.w3.org/TR/2001/REC-SVG-20010904/DTD/svg10.dtd">
<svg version="1.0" xmlns="http://www.w3.org/2000/svg"
 width="790.000000pt" height="1280.000000pt" viewBox="0 0 790.000000 1280.000000"
 preserveAspectRatio="xMidYMid meet">
<metadata>
Created by potrace 1.15, written by Peter Selinger 2001-2017
</metadata>
<g transform="translate(0.000000,1280.000000) scale(0.100000,-0.100000)"
fill="#ccfbf1" stroke="none">
<path d="M3574 12785 c-419 -76 -730 -359 -847 -773 -21 -76 -22 -89 -25 -934
-2 -777 -1 -858 13 -858 13 0 15 -11 13 -62 l-3 -63 -82 -3 -82 -3 -3 88 c-2
48 -6 87 -10 86 -5 -2 -51 -3 -103 -3 l-95 0 0 -85 0 -85 -50 0 c-78 0 -90
-18 -90 -135 0 -115 13 -135 92 -135 l48 0 0 -1597 c0 -1705 0 -1684 49 -1875
98 -380 376 -715 741 -893 97 -47 239 -95 343 -115 l57 -11 0 -1029 0 -1029
-32 -5 c-18 -3 -87 -8 -153 -11 -130 -7 -464 -38 -585 -56 -267 -37 -492 -77
-680 -119 -792 -175 -1397 -447 -1751 -788 -178 -171 -277 -327 -320 -507 -82
-346 127 -707 591 -1017 541 -362 1406 -618 2435 -722 326 -33 491 -40 905
-40 596 0 1028 35 1552 129 587 104 1068 252 1476 455 668 332 1003 775 903
1195 -43 180 -142 336 -320 507 -155 149 -328 267 -571 389 -490 245 -1067
406 -1860 518 -249 36 -717 69 -1025 74 l-150 2 -3 1027 -2 1027 57 11 c192
38 421 139 573 254 237 178 423 446 504 728 57 199 56 154 56 1897 l0 1601 90
0 c49 0 100 5 114 11 36 17 49 58 44 145 -5 105 -16 114 -149 114 l-99 0 0 88
0 87 -102 -2 -103 -1 -3 -86 -3 -86 -79 0 -80 0 0 69 c0 39 4 73 10 76 14 9
14 1547 0 1652 -13 92 -62 257 -97 328 -126 248 -343 439 -599 526 -164 56
-356 72 -510 44z m-842 -4527 l3 -1563 28 -90 c97 -312 300 -541 588 -664 136
-58 235 -76 404 -75 216 1 383 51 558 167 249 166 415 444 447 747 6 58 10
662 10 1568 l0 1472 80 0 80 0 0 -1607 c0 -1026 -4 -1632 -10 -1673 -62 -397
-299 -722 -654 -896 -510 -248 -1132 -101 -1467 349 -101 135 -164 269 -211
447 l-23 85 -2 1648 -3 1647 85 0 85 0 2 -1562z"/>
</g>
</svg>
