<?xml version="1.0" standalone="no"?>
<!DOCTYPE svg PUBLIC "-//W3C//DTD SVG 20010904//EN"
 "http://www.w3.org/TR/2001/REC-SVG-20010904/DTD/svg10.dtd">
<svg version="1.0" xmlns="http://www.w3.org/2000/svg"
 width="1090.000000pt" height="1280.000000pt" viewBox="0 0 1090.000000 1280.000000"
 preserveAspectRatio="xMidYMid meet">
<metadata>
Created by potrace 1.15, written by Peter Selinger 2001-2017
</metadata>
<g transform="translate(0.000000,1280.000000) scale(0.100000,-0.100000)"
fill="#000000" stroke="none">
<path d="M8962 12790 c-32 -13 -57 -76 -43 -108 6 -13 84 -94 172 -180 681
-661 1157 -1450 1419 -2354 245 -842 275 -1741 89 -2603 -279 -1287 -1028
-2428 -2099 -3198 -100 -72 -116 -87 -124 -120 -8 -31 -6 -42 11 -65 11 -15
36 -31 56 -36 33 -8 42 -6 94 29 96 63 321 237 448 346 154 132 452 430 584
584 757 884 1198 1937 1313 3130 16 174 16 732 0 910 -91 963 -390 1821 -905
2595 -226 339 -518 686 -792 942 -155 145 -165 151 -223 128z"/>
<path d="M1855 12778 c-39 -22 -267 -243 -389 -377 -355 -389 -620 -767 -846
-1205 -338 -654 -531 -1321 -602 -2081 -17 -182 -17 -717 0 -905 74 -816 310
-1576 709 -2280 87 -153 311 -489 415 -621 308 -395 648 -733 1028 -1023 130
-99 228 -165 256 -172 63 -16 127 74 92 128 -9 13 -70 63 -136 111 -1038 749
-1776 1863 -2066 3117 -149 646 -175 1322 -76 1985 112 757 393 1490 817 2135
210 318 392 540 691 840 123 124 228 235 233 248 11 29 -11 86 -39 101 -26 14
-61 14 -87 -1z"/>
<path d="M8074 12180 c-51 -20 -71 -99 -36 -137 9 -11 60 -55 112 -99 131
-108 331 -305 462 -454 893 -1013 1253 -2396 972 -3728 -119 -564 -363 -1122
-695 -1587 -317 -446 -690 -805 -1151 -1109 -80 -53 -151 -103 -157 -110 -6
-7 -14 -27 -17 -43 -9 -43 39 -97 85 -95 83 2 492 296 773 555 765 706 1260
1663 1398 2707 114 856 -30 1740 -411 2528 -277 574 -674 1083 -1161 1490
-114 94 -128 101 -174 82z"/>
<path d="M2762 12170 c-58 -24 -354 -290 -507 -456 -503 -545 -845 -1148
-1038 -1830 -251 -882 -231 -1789 57 -2655 320 -960 975 -1803 1824 -2346 128
-82 162 -90 208 -49 31 26 38 82 15 110 -7 9 -84 63 -170 120 -280 186 -466
342 -716 597 -193 198 -338 377 -489 604 -131 197 -175 274 -279 480 -227 455
-373 966 -429 1505 -16 158 -16 648 0 795 65 584 198 1046 437 1525 206 410
450 752 774 1083 91 92 203 200 250 240 170 144 181 156 181 197 0 59 -63 102
-118 80z"/>
<path d="M7503 11440 c-28 -11 -43 -40 -43 -81 0 -36 10 -47 189 -204 266
-233 519 -553 705 -891 198 -360 325 -757 388 -1214 20 -147 17 -662 -5 -817
-142 -997 -663 -1833 -1484 -2379 -130 -86 -143 -98 -149 -130 -11 -62 48
-116 109 -100 37 9 270 167 399 269 126 101 258 224 386 361 497 530 823 1228
917 1966 23 175 30 531 16 715 -70 866 -448 1667 -1072 2270 -230 221 -290
261 -356 235z"/>
<path d="M3243 11378 c-190 -150 -461 -441 -621 -665 -322 -453 -528 -951
-616 -1493 -104 -635 -35 -1272 205 -1885 52 -134 195 -417 272 -542 280 -449
684 -859 1112 -1128 103 -64 133 -69 176 -26 30 30 37 67 19 100 -5 10 -73 61
-152 114 -755 504 -1261 1263 -1437 2153 -48 243 -56 335 -56 649 0 334 18
498 87 785 154 652 533 1283 1031 1718 175 152 177 155 177 196 0 49 -36 86
-84 86 -27 0 -51 -13 -113 -62z"/>
<path d="M6931 10644 c-25 -21 -31 -34 -31 -64 0 -37 6 -44 123 -149 248 -225
411 -436 558 -726 234 -462 310 -1023 208 -1530 -129 -637 -486 -1168 -1035
-1536 -123 -82 -140 -117 -88 -178 42 -50 77 -43 196 35 520 343 906 880 1063
1478 68 257 79 350 79 651 1 284 -5 354 -50 560 -117 535 -424 1053 -827 1393
-122 103 -144 110 -196 66z"/>
<path d="M3793 10586 c-417 -348 -721 -852 -843 -1396 -49 -217 -55 -286 -54
-575 0 -290 11 -385 69 -613 156 -619 542 -1162 1073 -1514 119 -78 148 -84
193 -39 30 31 37 67 19 102 -6 11 -48 43 -93 73 -271 176 -505 406 -686 676
-519 774 -540 1774 -54 2575 119 196 293 402 471 558 108 94 112 99 112 138 0
51 -37 89 -86 89 -27 0 -51 -15 -121 -74z"/>
<path d="M6431 10084 c-25 -21 -31 -33 -31 -66 0 -38 5 -45 77 -112 256 -235
395 -446 493 -745 60 -184 75 -286 75 -506 0 -211 -18 -330 -75 -508 -41 -126
-146 -332 -227 -447 -89 -124 -264 -299 -382 -380 -129 -89 -141 -101 -141
-148 0 -51 32 -82 84 -82 68 0 259 142 424 315 129 135 217 260 302 429 147
291 210 581 196 901 -17 411 -163 784 -430 1103 -85 100 -218 227 -269 255
-43 23 -60 22 -96 -9z"/>
<path d="M4374 10086 c-44 -19 -259 -235 -331 -331 -545 -733 -487 -1718 142
-2374 143 -149 350 -301 410 -301 48 0 85 33 85 76 0 53 -12 67 -108 133 -364
250 -607 618 -694 1054 -32 161 -32 452 0 614 72 358 273 710 529 928 84 70
105 104 92 148 -5 18 -9 33 -9 34 0 6 -60 33 -72 33 -7 -1 -27 -7 -44 -14z"/>
<path d="M5290 9510 c-157 -18 -359 -105 -473 -206 -125 -109 -223 -264 -273
-429 -24 -80 -27 -106 -28 -235 0 -121 4 -158 22 -223 73 -257 236 -456 465
-568 44 -22 67 -39 67 -50 0 -10 -7 -102 -15 -206 -153 -1904 -706 -3660
-1606 -5101 -458 -733 -985 -1358 -1662 -1970 l-47 -43 182 -204 182 -204 30
26 c17 14 103 92 192 174 268 247 560 555 803 846 l94 113 2142 0 2142 0 104
-122 c264 -313 599 -659 916 -946 l91 -82 163 182 c89 101 172 193 183 206
l21 24 -35 30 c-835 727 -1567 1683 -2110 2753 -156 308 -370 792 -370 837 0
9 -4 18 -8 20 -10 4 -57 124 -145 373 -306 860 -524 1841 -621 2805 -24 235
-38 423 -34 458 3 31 8 36 69 61 134 56 265 158 351 270 190 250 234 578 117
871 -143 356 -523 581 -909 540z m141 -3935 c104 -439 251 -934 392 -1322 l45
-123 -504 0 -503 0 35 98 c168 459 365 1149 455 1587 l12 60 18 -85 c10 -47
33 -143 50 -215z m649 -1972 c93 -215 185 -411 277 -590 l73 -143 -1065 0
-1064 0 98 198 c118 236 255 535 312 680 l9 22 643 0 644 0 73 -167z m669
-1296 c83 -137 266 -417 360 -549 l62 -88 -1806 0 -1806 0 42 58 c69 94 321
479 390 595 l64 107 1310 0 1310 0 74 -123z"/>
</g>
</svg>
