<?xml version="1.0" standalone="no"?>
<!DOCTYPE svg PUBLIC "-//W3C//DTD SVG 20010904//EN"
 "http://www.w3.org/TR/2001/REC-SVG-20010904/DTD/svg10.dtd">
<svg version="1.0" xmlns="http://www.w3.org/2000/svg"
 width="1202.000000pt" height="1280.000000pt" viewBox="0 0 1202.000000 1280.000000"
 preserveAspectRatio="xMidYMid meet">
<metadata>
Created by potrace 1.15, written by Peter Selinger 2001-2017
</metadata>
<g transform="translate(0.000000,1280.000000) scale(0.100000,-0.100000)"
fill="#000000" stroke="none">
<path d="M513 12497 l-512 -302 -1 -6097 0 -6098 5255 0 5255 0 0 545 0 545
751 0 751 0 -79 83 c-167 177 -301 378 -446 667 -260 518 -401 1056 -484 1835
-16 148 -17 509 -20 4643 l-3 4482 -4978 0 -4977 0 -512 -303z m517 -4692 c0
-2764 4 -4244 10 -4358 43 -714 162 -1259 365 -1672 91 -187 175 -313 284
-428 104 -109 182 -170 280 -219 l76 -38 3887 0 3888 0 0 -200 0 -200 -4565 0
-4565 0 0 5554 0 5554 162 96 c89 53 165 96 170 96 4 0 8 -1883 8 -4185z
m2540 1550 l0 -965 -925 0 -925 0 0 965 0 965 925 0 925 0 0 -965z m2310 0 l0
-965 -1005 0 -1005 0 0 965 0 965 1005 0 1005 0 0 -965z m2310 0 l0 -965
-1005 0 -1005 0 0 965 0 965 1005 0 1005 0 0 -965z m2095 0 l0 -960 -897 -3
-898 -2 0 965 0 965 898 -2 897 -3 0 -960z m-6715 -2220 l0 -965 -925 0 -925
0 0 965 0 965 925 0 925 0 0 -965z m2310 0 l0 -965 -1005 0 -1005 0 0 958 c0
527 3 962 7 965 3 4 456 7 1005 7 l998 0 0 -965z m2310 0 l0 -965 -1005 0
-1005 0 0 965 0 965 1005 0 1005 0 0 -965z m2095 0 l0 -960 -897 -3 -898 -2 0
965 0 965 898 -2 897 -3 0 -960z m-6715 -1992 c0 -401 3 -833 7 -960 l6 -233
-931 0 -932 0 0 960 0 960 925 0 925 0 0 -727z m2310 -90 c0 -450 3 -882 7
-960 l6 -143 -1005 0 -1005 0 -7 92 c-3 50 -6 482 -6 960 l0 868 1005 0 1005
0 0 -817z m2310 -66 c0 -486 3 -918 6 -960 l7 -77 -1005 0 -1005 0 -7 53 c-3
28 -6 460 -6 960 l0 907 1005 0 1005 0 0 -883z m2100 -77 l0 -960 -897 2 -898
3 -3 958 -2 957 900 0 900 0 0 -960z m-6686 -1302 c3 -24 10 -92 17 -153 63
-632 242 -1224 478 -1582 l61 -93 -970 0 -969 0 -48 60 c-253 312 -409 920
-446 1743 l-3 67 937 0 938 0 5 -42z m2306 25 c0 -103 69 -572 115 -780 90
-405 246 -794 411 -1025 l34 -48 -958 0 -958 0 -46 48 c-314 324 -530 950
-603 1750 l-7 72 1006 0 c951 0 1006 -1 1006 -17z m2324 -155 c67 -665 245
-1256 487 -1615 27 -40 49 -76 49 -78 0 -3 -429 -5 -954 -5 l-954 0 -64 68
c-242 257 -432 722 -528 1297 -29 172 -60 418 -60 475 l0 30 1003 0 1003 0 18
-172z m2063 107 c18 -413 101 -977 198 -1330 29 -108 123 -393 150 -457 7 -17
-32 -18 -733 -18 l-740 0 -47 48 c-107 107 -225 290 -310 480 -150 339 -248
769 -298 1305 l-3 37 891 -2 890 -3 2 -60z"/>
</g>
</svg>
