<?xml version="1.0" standalone="no"?>
<!DOCTYPE svg PUBLIC "-//W3C//DTD SVG 20010904//EN"
 "http://www.w3.org/TR/2001/REC-SVG-20010904/DTD/svg10.dtd">
<svg version="1.0" xmlns="http://www.w3.org/2000/svg"
 width="1202.000000pt" height="1280.000000pt" viewBox="0 0 1202.000000 1280.000000"
 preserveAspectRatio="xMidYMid meet">
<metadata>
Created by potrace 1.15, written by Peter Selinger 2001-2017
</metadata>
<g transform="translate(0.000000,1280.000000) scale(0.100000,-0.100000)"
fill="#000000" stroke="none">
<path d="M4525 12794 c-196 -11 -504 -51 -710 -94 -829 -171 -1625 -585 -2230
-1160 -704 -668 -1178 -1500 -1424 -2496 -153 -620 -198 -1333 -125 -1964 95
-826 365 -1588 809 -2290 119 -187 352 -496 466 -615 21 -22 52 -67 68 -101
16 -33 77 -141 136 -240 219 -368 303 -594 351 -941 24 -172 24 -540 0 -748
-67 -586 -240 -1228 -540 -2004 l-55 -144 537 7 c295 4 1039 11 1652 16 1926
18 3114 30 3117 34 2 2 -8 59 -21 127 -37 180 -47 291 -48 494 -1 520 162
1074 456 1548 100 160 79 147 246 163 557 55 994 246 1294 564 313 334 514
800 625 1450 26 150 61 426 61 475 0 13 22 15 157 15 l156 0 -6 -500 c-5 -391
-4 -499 6 -494 62 38 2507 1688 2507 1693 0 6 -2484 1581 -2494 1581 -3 0 -7
-206 -8 -457 l-3 -458 -157 -3 -158 -3 0 51 c0 61 -33 391 -61 600 -96 731
-261 1455 -494 2155 -160 483 -298 823 -510 1250 -336 680 -660 1150 -1085
1576 -207 207 -343 323 -530 448 -401 269 -745 393 -1235 446 -136 15 -608 27
-750 19z m489 -800 c710 -105 1417 -607 2063 -1465 722 -960 1315 -2354 1563
-3679 71 -378 91 -559 94 -885 l1 -60 -431 -3 -430 -2 -43 65 c-110 166 -313
299 -511 335 -100 18 -252 14 -345 -10 -103 -26 -243 -95 -322 -159 -118 -97
-227 -267 -268 -416 -25 -92 -30 -255 -12 -351 30 -161 100 -297 211 -412 107
-112 221 -180 373 -224 64 -19 102 -23 213 -22 139 0 174 6 293 51 186 69 361
239 444 430 l27 63 394 0 394 0 -6 -77 c-15 -168 -38 -317 -62 -399 -79 -272
-200 -496 -364 -668 -322 -338 -785 -511 -1555 -580 -270 -25 -562 -35 -1287
-46 -696 -11 -827 -8 -1093 26 -1036 132 -1995 698 -2666 1574 -456 595 -764
1332 -873 2085 -62 426 -62 972 -1 1388 113 764 419 1466 893 2047 163 199
450 473 667 636 397 299 882 530 1372 653 449 113 937 154 1267 105z m-2163
-8978 c342 -163 731 -289 1119 -360 208 -38 1503 -202 1905 -242 94 -9 174
-19 178 -24 16 -15 -16 -150 -65 -270 -93 -230 -118 -300 -148 -418 -64 -256
-97 -534 -107 -910 l-6 -242 -1649 0 c-1192 0 -1648 3 -1648 11 0 6 13 57 29
113 199 684 318 1472 296 1956 -6 144 -32 410 -41 435 -4 8 -4 15 -1 15 2 0
64 -29 138 -64z"/>
</g>
</svg>
